<svg xmlns="http://www.w3.org/2000/svg" width="417.68255615234375" height="419.87493896484375" viewBox="-218.04029846191406 -264.4405517578125 417.68255615234375 419.87493896484375"><title>Neo4j Graph Visualization</title><desc>Created using Neo4j (http://www.neo4j.com/)</desc><g class="layer relationships"><g class="relationship" transform="translate(-142.4696341459088 86.78660293392) rotate(317.2186542477299)"><path class="b-outline" fill="#A5ABB6" stroke="none" d="M 25 0.5 L 71.53985323431449 0.5 L 71.53985323431449 -0.5 L 25 -0.5 Z M 118.44610323431449 0.5 L 164.98595646862898 0.5 L 164.98595646862898 3.5 L 171.98595646862898 0 L 164.98595646862898 -3.5 L 164.98595646862898 -0.5 L 118.44610323431449 -0.5 Z"/><text text-anchor="middle" pointer-events="none" font-size="8px" fill="#000000" x="94.99297823431449" y="3" font-family="Helvetica Neue, Helvetica, Arial, sans-serif">FactoredBy</text></g><g class="relationship" transform="translate(47.37073288083136 126.43438358776595) rotate(255.37392599183158)"><path class="b-outline" fill="#A5ABB6" stroke="none" d="M 25 0.5 L 62.6717833286219 0.5 L 62.6717833286219 -0.5 L 25 -0.5 Z M 109.5780333286219 0.5 L 147.2498166572438 0.5 L 147.2498166572438 3.5 L 154.2498166572438 0 L 147.2498166572438 -3.5 L 147.2498166572438 -0.5 L 109.5780333286219 -0.5 Z"/><text text-anchor="middle" pointer-events="none" font-size="8px" fill="#000000" x="86.1249083286219" y="3" transform="rotate(180 86.1249083286219 0)" font-family="Helvetica Neue, Helvetica, Arial, sans-serif">FactoredBy</text></g><g class="relationship" transform="translate(74.65541615746301 31.40122867636359) rotate(227.22344003093042)"><path class="b-outline" fill="#A5ABB6" stroke="none" d="M 25 0.5 L 26.457724427411826 0.5 L 26.457724427411826 -0.5 L 25 -0.5 Z M 73.36397442741182 0.5 L 74.82169885482365 0.5 L 74.82169885482365 3.5 L 81.82169885482365 0 L 74.82169885482365 -3.5 L 74.82169885482365 -0.5 L 73.36397442741182 -0.5 Z"/><text text-anchor="middle" pointer-events="none" font-size="8px" fill="#000000" x="49.910849427411826" y="3" transform="rotate(180 49.910849427411826 0)" font-family="Helvetica Neue, Helvetica, Arial, sans-serif">FactoredBy</text></g><g class="relationship" transform="translate(170.64225110574884 6.653409066967069) rotate(197.66115502747965)"><path class="b-outline" fill="#A5ABB6" stroke="none" d="M 25 0.5 L 61.48197117501819 0.5 L 61.48197117501819 -0.5 L 25 -0.5 Z M 108.38822117501819 0.5 L 144.87019235003638 0.5 L 144.87019235003638 3.5 L 151.87019235003638 0 L 144.87019235003638 -3.5 L 144.87019235003638 -0.5 L 108.38822117501819 -0.5 Z"/><text text-anchor="middle" pointer-events="none" font-size="8px" fill="#000000" x="84.93509617501819" y="3" transform="rotate(180 84.93509617501819 0)" font-family="Helvetica Neue, Helvetica, Arial, sans-serif">FactoredBy</text></g><g class="relationship" transform="translate(145.40782873223176 -87.83765156773525) rotate(524.0959278604976)"><path class="b-outline" fill="#A5ABB6" stroke="none" d="M 25 0.5 L 47.54836311185669 0.5 L 47.54836311185669 -0.5 L 25 -0.5 Z M 94.45461311185669 0.5 L 117.00297622371338 0.5 L 117.00297622371338 3.5 L 124.00297622371338 0 L 117.00297622371338 -3.5 L 117.00297622371338 -0.5 L 94.45461311185669 -0.5 Z"/><text text-anchor="middle" pointer-events="none" font-size="8px" fill="#000000" x="71.00148811185669" y="3" transform="rotate(180 71.00148811185669 0)" font-family="Helvetica Neue, Helvetica, Arial, sans-serif">FactoredBy</text></g><g class="relationship" transform="translate(143.04032796877615 -186.69761838301545) rotate(495.2533828685349)"><path class="b-outline" fill="#A5ABB6" stroke="none" d="M 25 0.5 L 72.26298960058654 0.5 L 72.26298960058654 -0.5 L 25 -0.5 Z M 119.16923960058654 0.5 L 166.43222920117307 0.5 L 166.43222920117307 3.5 L 173.43222920117307 0 L 166.43222920117307 -3.5 L 166.43222920117307 -0.5 L 119.16923960058654 -0.5 Z"/><text text-anchor="middle" pointer-events="none" font-size="8px" fill="#000000" x="95.71611460058654" y="3" transform="rotate(180 95.71611460058654 0)" font-family="Helvetica Neue, Helvetica, Arial, sans-serif">FactoredBy</text></g><g class="relationship" transform="translate(58.779266221072696 -138.0674269157869) rotate(481.89571885307384)"><path class="b-outline" fill="#A5ABB6" stroke="none" d="M 25 0.5 L 26.6743785029311 0.5 L 26.6743785029311 -0.5 L 25 -0.5 Z M 73.58062850293109 0.5 L 75.2550070058622 0.5 L 75.2550070058622 3.5 L 82.2550070058622 0 L 75.2550070058622 -3.5 L 75.2550070058622 -0.5 L 73.58062850293109 -0.5 Z"/><text text-anchor="middle" pointer-events="none" font-size="8px" fill="#000000" x="50.1275035029311" y="3" transform="rotate(180 50.1275035029311 0)" font-family="Helvetica Neue, Helvetica, Arial, sans-serif">FactoredBy</text></g><g class="relationship" transform="translate(2.1084128354679996 -47.00672790477094) rotate(270.87854144398864)"><path class="b-outline" fill="#A5ABB6" stroke="none" d="M 6.953439040707552 24.018736134675446 L 17.306200844808384 62.65576918623819 A 17.916697508022974 17.916697508022974 0 1 1 -17.306200844808384 62.65576918623819 L -8.765172356425198 30.780216918698923 L -4.901469051268926 31.815493099109005 L -6.4704761275630185 24.148145657226706 L -11.662949835292403 30.00375978339136 L -7.79924653013613 31.039035963801442 L -16.340275018519314 62.91458823134071 A 16.916697508022974 16.916697508022974 0 1 0 16.340275018519314 62.91458823134071 L 5.987513214418485 24.277555179777966 Z"/><text text-anchor="middle" pointer-events="none" font-size="8px" fill="#000000" x="0" y="94.20964923467838" font-family="Helvetica Neue, Helvetica, Arial, sans-serif">FactoredBy</text></g><g class="relationship" transform="translate(56.4902070819537 -235.4405230627077) rotate(466.0980840565858)"><path class="b-outline" fill="#A5ABB6" stroke="none" d="M 25 0.5 L 71.1089404268132 0.5 L 71.1089404268132 -0.5 L 25 -0.5 Z M 118.0151904268132 0.5 L 164.1241308536264 0.5 L 164.1241308536264 3.5 L 171.1241308536264 0 L 164.1241308536264 -3.5 L 164.1241308536264 -0.5 L 118.0151904268132 -0.5 Z"/><text text-anchor="middle" pointer-events="none" font-size="8px" fill="#000000" x="94.5620654268132" y="3" transform="rotate(180 94.5620654268132 0)" font-family="Helvetica Neue, Helvetica, Arial, sans-serif">FactoredBy</text></g><g class="relationship" transform="translate(-28.357019266084357 -187.11474735198897) rotate(437.73242768647134)"><path class="b-outline" fill="#A5ABB6" stroke="none" d="M 25 0.5 L 44.73787803831074 0.5 L 44.73787803831074 -0.5 L 25 -0.5 Z M 91.64412803831074 0.5 L 111.38200607662148 0.5 L 111.38200607662148 3.5 L 118.38200607662148 0 L 111.38200607662148 -3.5 L 111.38200607662148 -0.5 L 91.64412803831074 -0.5 Z"/><text text-anchor="middle" pointer-events="none" font-size="8px" fill="#000000" x="68.19100303831074" y="3" font-family="Helvetica Neue, Helvetica, Arial, sans-serif">FactoredBy</text></g><g class="relationship" transform="translate(-126.97134337941955 -183.46509106157205) rotate(406.5916896502561)"><path class="b-outline" fill="#A5ABB6" stroke="none" d="M 25 0.5 L 66.9650153403094 0.5 L 66.9650153403094 -0.5 L 25 -0.5 Z M 113.8712653403094 0.5 L 155.8362806806188 0.5 L 155.8362806806188 3.5 L 162.8362806806188 0 L 155.8362806806188 -3.5 L 155.8362806806188 -0.5 L 113.8712653403094 -0.5 Z"/><text text-anchor="middle" pointer-events="none" font-size="8px" fill="#000000" x="90.4181403403094" y="3" font-family="Helvetica Neue, Helvetica, Arial, sans-serif">FactoredBy</text></g><g class="relationship" transform="translate(-139.42129575901825 -86.18054701018755) rotate(375.47148520066406)"><path class="b-outline" fill="#A5ABB6" stroke="none" d="M 25 0.5 L 46.47242661206502 0.5 L 46.47242661206502 -0.5 L 25 -0.5 Z M 93.37867661206502 0.5 L 114.85110322413004 0.5 L 114.85110322413004 3.5 L 121.85110322413004 0 L 114.85110322413004 -3.5 L 114.85110322413004 -0.5 L 93.37867661206502 -0.5 Z"/><text text-anchor="middle" pointer-events="none" font-size="8px" fill="#000000" x="69.92555161206502" y="3" font-family="Helvetica Neue, Helvetica, Arial, sans-serif">FactoredBy</text></g><g class="relationship" transform="translate(-92.26556864773184 2.772480317794108) rotate(332.1898098414283)"><path class="b-outline" fill="#A5ABB6" stroke="none" d="M 25 0.5 L 26.395768972267206 0.5 L 26.395768972267206 -0.5 L 25 -0.5 Z M 73.3020189722672 0.5 L 74.69778794453441 0.5 L 74.69778794453441 3.5 L 81.69778794453441 0 L 74.69778794453441 -3.5 L 74.69778794453441 -0.5 L 73.3020189722672 -0.5 Z"/><text text-anchor="middle" pointer-events="none" font-size="8px" fill="#000000" x="49.848893972267206" y="3" font-family="Helvetica Neue, Helvetica, Arial, sans-serif">FactoredBy</text></g><g class="relationship" transform="translate(-189.04030416305008 -0.46619259204973934) rotate(346.31598643616394)"><path class="b-outline" fill="#A5ABB6" stroke="none" d="M 25 0.5 L 71.41334977338785 0.5 L 71.41334977338785 -0.5 L 25 -0.5 Z M 118.31959977338785 0.5 L 164.7329495467757 0.5 L 164.7329495467757 3.5 L 171.7329495467757 0 L 164.7329495467757 -3.5 L 164.7329495467757 -0.5 L 118.31959977338785 -0.5 Z"/><text text-anchor="middle" pointer-events="none" font-size="8px" fill="#000000" x="94.86647477338785" y="3" font-family="Helvetica Neue, Helvetica, Arial, sans-serif">FactoredBy</text></g><g class="relationship" transform="translate(-44.66023032861416 90.648054561184) rotate(288.76535332906656)"><path class="b-outline" fill="#A5ABB6" stroke="none" d="M 25 0.5 L 45.738251928695306 0.5 L 45.738251928695306 -0.5 L 25 -0.5 Z M 92.6445019286953 0.5 L 113.38275385739061 0.5 L 113.38275385739061 3.5 L 120.38275385739061 0 L 113.38275385739061 -3.5 L 113.38275385739061 -0.5 L 92.6445019286953 -0.5 Z"/><text text-anchor="middle" pointer-events="none" font-size="8px" fill="#000000" x="69.1913769286953" y="3" font-family="Helvetica Neue, Helvetica, Arial, sans-serif">FactoredBy</text></g><g class="relationship" transform="translate(142.42832914568996 100.4811967835507) rotate(226.42668713030918)"><path class="b-outline" fill="#A5ABB6" stroke="none" d="M 25 0.5 L 74.83386685330085 0.5 L 74.83386685330085 -0.5 L 25 -0.5 Z M 121.74011685330085 0.5 L 171.5739837066017 0.5 L 171.5739837066017 3.5 L 178.5739837066017 0 L 171.5739837066017 -3.5 L 171.5739837066017 -0.5 L 121.74011685330085 -0.5 Z"/><text text-anchor="middle" pointer-events="none" font-size="8px" fill="#000000" x="98.28699185330085" y="3" transform="rotate(180 98.28699185330085 0)" font-family="Helvetica Neue, Helvetica, Arial, sans-serif">FactoredBy</text></g></g><g class="layer nodes"><g class="node" aria-label="graph-node1" transform="translate(-142.4696341459088,86.78660293392)"><circle class="b-outline" cx="0" cy="0" r="25" fill="#569480" stroke="#447666" stroke-width="2px"/><text class="caption" text-anchor="middle" pointer-events="none" x="0" y="5" font-size="10px" fill="#FFFFFF" font-family="Helvetica Neue, Helvetica, Arial, sans-serif"> 6097</text></g><g class="node" aria-label="graph-node7" transform="translate(47.37073288083136,126.43438358776595)"><circle class="b-outline" cx="0" cy="0" r="25" fill="#569480" stroke="#447666" stroke-width="2px"/><text class="caption" text-anchor="middle" pointer-events="none" x="0" y="5" font-size="10px" fill="#FFFFFF" font-family="Helvetica Neue, Helvetica, Arial, sans-serif"> 6643</text></g><g class="node" aria-label="graph-node12" transform="translate(74.65541615746301,31.40122867636359)"><circle class="b-outline" cx="0" cy="0" r="25" fill="#569480" stroke="#447666" stroke-width="2px"/><text class="caption" text-anchor="middle" pointer-events="none" x="0" y="5" font-size="10px" fill="#FFFFFF" font-family="Helvetica Neue, Helvetica, Arial, sans-serif"> 7189</text></g><g class="node" aria-label="graph-node16" transform="translate(170.64225110574884,6.653409066967069)"><circle class="b-outline" cx="0" cy="0" r="25" fill="#569480" stroke="#447666" stroke-width="2px"/><text class="caption" text-anchor="middle" pointer-events="none" x="0" y="5" font-size="10px" fill="#FFFFFF" font-family="Helvetica Neue, Helvetica, Arial, sans-serif"> 8281</text></g><g class="node" aria-label="graph-node17" transform="translate(145.40782873223176,-87.83765156773525)"><circle class="b-outline" cx="0" cy="0" r="25" fill="#569480" stroke="#447666" stroke-width="2px"/><text class="caption" text-anchor="middle" pointer-events="none" x="0" y="5" font-size="10px" fill="#FFFFFF" font-family="Helvetica Neue, Helvetica, Arial, sans-serif"> 8827</text></g><g class="node" aria-label="graph-node18" transform="translate(143.04032796877615,-186.69761838301545)"><circle class="b-outline" cx="0" cy="0" r="25" fill="#569480" stroke="#447666" stroke-width="2px"/><text class="caption" text-anchor="middle" pointer-events="none" x="0" y="5" font-size="10px" fill="#FFFFFF" font-family="Helvetica Neue, Helvetica, Arial, sans-serif"> 9373</text></g><g class="node" aria-label="graph-node19" transform="translate(58.779266221072696,-138.0674269157869)"><circle class="b-outline" cx="0" cy="0" r="25" fill="#569480" stroke="#447666" stroke-width="2px"/><text class="caption" text-anchor="middle" pointer-events="none" x="0" y="5" font-size="10px" fill="#FFFFFF" font-family="Helvetica Neue, Helvetica, Arial, sans-serif"> 9919</text></g><g class="node" aria-label="graph-node453" transform="translate(2.1084128354679996,-47.00672790477094)"><circle class="b-outline" cx="0" cy="0" r="25" fill="#569480" stroke="#447666" stroke-width="2px"/><text class="caption" text-anchor="middle" pointer-events="none" x="0" y="5" font-size="10px" fill="#FFFFFF" font-family="Helvetica Neue, Helvetica, Arial, sans-serif"> 91</text></g><g class="node" aria-label="graph-node466" transform="translate(56.4902070819537,-235.4405230627077)"><circle class="b-outline" cx="0" cy="0" r="25" fill="#569480" stroke="#447666" stroke-width="2px"/><text class="caption" text-anchor="middle" pointer-events="none" x="0" y="5" font-size="10px" fill="#FFFFFF" font-family="Helvetica Neue, Helvetica, Arial, sans-serif"> 637</text></g><g class="node" aria-label="graph-node479" transform="translate(-28.357019266084357,-187.11474735198897)"><circle class="b-outline" cx="0" cy="0" r="25" fill="#569480" stroke="#447666" stroke-width="2px"/><text class="caption" text-anchor="middle" pointer-events="none" x="0" y="5" font-size="10px" fill="#FFFFFF" font-family="Helvetica Neue, Helvetica, Arial, sans-serif"> 1183</text></g><g class="node" aria-label="graph-node492" transform="translate(-126.97134337941955,-183.46509106157205)"><circle class="b-outline" cx="0" cy="0" r="25" fill="#569480" stroke="#447666" stroke-width="2px"/><text class="caption" text-anchor="middle" pointer-events="none" x="0" y="5" font-size="10px" fill="#FFFFFF" font-family="Helvetica Neue, Helvetica, Arial, sans-serif"> 1729</text></g><g class="node" aria-label="graph-node504" transform="translate(-139.42129575901825,-86.18054701018755)"><circle class="b-outline" cx="0" cy="0" r="25" fill="#569480" stroke="#447666" stroke-width="2px"/><text class="caption" text-anchor="middle" pointer-events="none" x="0" y="5" font-size="10px" fill="#FFFFFF" font-family="Helvetica Neue, Helvetica, Arial, sans-serif"> 2821</text></g><g class="node" aria-label="graph-node515" transform="translate(-92.26556864773184,2.772480317794108)"><circle class="b-outline" cx="0" cy="0" r="25" fill="#569480" stroke="#447666" stroke-width="2px"/><text class="caption" text-anchor="middle" pointer-events="none" x="0" y="5" font-size="10px" fill="#FFFFFF" font-family="Helvetica Neue, Helvetica, Arial, sans-serif"> 3367</text></g><g class="node" aria-label="graph-node525" transform="translate(-189.04030416305008,-0.46619259204973934)"><circle class="b-outline" cx="0" cy="0" r="25" fill="#569480" stroke="#447666" stroke-width="2px"/><text class="caption" text-anchor="middle" pointer-events="none" x="0" y="5" font-size="10px" fill="#FFFFFF" font-family="Helvetica Neue, Helvetica, Arial, sans-serif"> 3913</text></g><g class="node" aria-label="graph-node534" transform="translate(-44.66023032861416,90.648054561184)"><circle class="b-outline" cx="0" cy="0" r="25" fill="#569480" stroke="#447666" stroke-width="2px"/><text class="caption" text-anchor="middle" pointer-events="none" x="0" y="5" font-size="10px" fill="#FFFFFF" font-family="Helvetica Neue, Helvetica, Arial, sans-serif"> 4459</text></g><g class="node" aria-label="graph-node542" transform="translate(142.42832914568996,100.4811967835507)"><circle class="b-outline" cx="0" cy="0" r="25" fill="#569480" stroke="#447666" stroke-width="2px"/><text class="caption" text-anchor="middle" pointer-events="none" x="0" y="5" font-size="10px" fill="#FFFFFF" font-family="Helvetica Neue, Helvetica, Arial, sans-serif"> 5551</text></g></g></svg>