<svg xmlns="http://www.w3.org/2000/svg" width="497.7996520996094" height="416.596435546875" viewBox="-396.1551818847656 -256.90838623046875 497.7996520996094 416.596435546875"><title>Neo4j Graph Visualization</title><desc>Created using Neo4j (http://www.neo4j.com/)</desc><g class="layer relationships"><g class="relationship" transform="translate(-100.66404097604651 -27.051513996018546) rotate(355.52544046787966)"><path class="b-outline" fill="#A5ABB6" stroke="none" d="M 6.953439040707552 24.018736134675446 L 17.306200844808384 62.65576918623819 A 17.916697508022974 17.916697508022974 0 1 1 -17.306200844808384 62.65576918623819 L -8.765172356425198 30.780216918698923 L -4.901469051268926 31.815493099109005 L -6.4704761275630185 24.148145657226706 L -11.662949835292403 30.00375978339136 L -7.79924653013613 31.039035963801442 L -16.340275018519314 62.91458823134071 A 16.916697508022974 16.916697508022974 0 1 0 16.340275018519314 62.91458823134071 L 5.987513214418485 24.277555179777966 Z"/><text text-anchor="middle" pointer-events="none" font-size="8px" fill="#000000" x="0" y="94.20964923467838" font-family="Helvetica Neue, Helvetica, Arial, sans-serif">FactoredBy</text></g><g class="relationship" transform="translate(-299.729216108482 -120.97731775777976) rotate(385.2595519949282)"><path class="b-outline" fill="#A5ABB6" stroke="none" d="M 25 0.5 L 83.10254337151106 0.5 L 83.10254337151106 -0.5 L 25 -0.5 Z M 130.00879337151105 0.5 L 188.11133674302212 0.5 L 188.11133674302212 3.5 L 195.11133674302212 0 L 188.11133674302212 -3.5 L 188.11133674302212 -0.5 L 130.00879337151105 -0.5 Z"/><text text-anchor="middle" pointer-events="none" font-size="8px" fill="#000000" x="106.55566837151106" y="3" font-family="Helvetica Neue, Helvetica, Arial, sans-serif">FactoredBy</text></g><g class="relationship" transform="translate(56.352073007166894 38.57285155083794) rotate(202.6823275032504)"><path class="b-outline" fill="#A5ABB6" stroke="none" d="M 25 0.5 L 58.13597154564577 0.5 L 58.13597154564577 -0.5 L 25 -0.5 Z M 105.04222154564577 0.5 L 138.17819309129155 0.5 L 138.17819309129155 3.5 L 145.17819309129155 0 L 138.17819309129155 -3.5 L 138.17819309129155 -0.5 L 105.04222154564577 -0.5 Z"/><text text-anchor="middle" pointer-events="none" font-size="8px" fill="#000000" x="81.58909654564577" y="3" transform="rotate(180 81.58909654564577 0)" font-family="Helvetica Neue, Helvetica, Arial, sans-serif">FactoredBy</text></g><g class="relationship" transform="translate(-44.391269060790236 105.10534560833153) rotate(246.93555527868978)"><path class="b-outline" fill="#A5ABB6" stroke="none" d="M 25 0.5 L 44.866197608039045 0.5 L 44.866197608039045 -0.5 L 25 -0.5 Z M 91.77244760803904 0.5 L 111.63864521607809 0.5 L 111.63864521607809 3.5 L 118.63864521607809 0 L 111.63864521607809 -3.5 L 111.63864521607809 -0.5 L 91.77244760803904 -0.5 Z"/><text text-anchor="middle" pointer-events="none" font-size="8px" fill="#000000" x="68.31932260803904" y="3" transform="rotate(180 68.31932260803904 0)" font-family="Helvetica Neue, Helvetica, Arial, sans-serif">FactoredBy</text></g><g class="relationship" transform="translate(49.405034106369705 130.68800419747447) rotate(226.42748802371545)"><path class="b-outline" fill="#A5ABB6" stroke="none" d="M 25 0.5 L 81.90743132781691 0.5 L 81.90743132781691 -0.5 L 25 -0.5 Z M 128.8136813278169 0.5 L 185.72111265563382 0.5 L 185.72111265563382 3.5 L 192.72111265563382 0 L 185.72111265563382 -3.5 L 185.72111265563382 -0.5 L 128.8136813278169 -0.5 Z"/><text text-anchor="middle" pointer-events="none" font-size="8px" fill="#000000" x="105.36055632781691" y="3" transform="rotate(180 105.36055632781691 0)" font-family="Helvetica Neue, Helvetica, Arial, sans-serif">FactoredBy</text></g><g class="relationship" transform="translate(27.930446860145388 -175.82240823556432) rotate(490.83945796903595)"><path class="b-outline" fill="#A5ABB6" stroke="none" d="M 25 0.5 L 71.36945795362085 0.5 L 71.36945795362085 -0.5 L 25 -0.5 Z M 118.27570795362085 0.5 L 164.6451659072417 0.5 L 164.6451659072417 3.5 L 171.6451659072417 0 L 164.6451659072417 -3.5 L 164.6451659072417 -0.5 L 118.27570795362085 -0.5 Z"/><text text-anchor="middle" pointer-events="none" font-size="8px" fill="#000000" x="94.82258295362085" y="3" transform="rotate(180 94.82258295362085 0)" font-family="Helvetica Neue, Helvetica, Arial, sans-serif">FactoredBy</text></g><g class="relationship" transform="translate(72.64446533030349 -29.114572982369868) rotate(539.3179850635934)"><path class="b-outline" fill="#A5ABB6" stroke="none" d="M 25 0.5 L 59.707267582943174 0.5 L 59.707267582943174 -0.5 L 25 -0.5 Z M 106.61351758294317 0.5 L 141.32078516588635 0.5 L 141.32078516588635 3.5 L 148.32078516588635 0 L 141.32078516588635 -3.5 L 141.32078516588635 -0.5 L 106.61351758294317 -0.5 Z"/><text text-anchor="middle" pointer-events="none" font-size="8px" fill="#000000" x="83.16039258294317" y="3" transform="rotate(180 83.16039258294317 0)" font-family="Helvetica Neue, Helvetica, Arial, sans-serif">FactoredBy</text></g><g class="relationship" transform="translate(-218.98868048394715 -165.4606503110806) rotate(409.4731859359497)"><path class="b-outline" fill="#A5ABB6" stroke="none" d="M 25 0.5 L 64.09330454305797 0.5 L 64.09330454305797 -0.5 L 25 -0.5 Z M 110.99955454305797 0.5 L 150.09285908611594 0.5 L 150.09285908611594 3.5 L 157.09285908611594 0 L 150.09285908611594 -3.5 L 150.09285908611594 -0.5 L 110.99955454305797 -0.5 Z"/><text text-anchor="middle" pointer-events="none" font-size="8px" fill="#000000" x="87.54642954305797" y="3" font-family="Helvetica Neue, Helvetica, Arial, sans-serif">FactoredBy</text></g><g class="relationship" transform="translate(-69.00511201219311 -162.32713027380564) rotate(463.17202270786817)"><path class="b-outline" fill="#A5ABB6" stroke="none" d="M 25 0.5 L 42.512298309862246 0.5 L 42.512298309862246 -0.5 L 25 -0.5 Z M 89.41854830986225 0.5 L 106.93084661972449 0.5 L 106.93084661972449 3.5 L 113.93084661972449 0 L 106.93084661972449 -3.5 L 106.93084661972449 -0.5 L 89.41854830986225 -0.5 Z"/><text text-anchor="middle" pointer-events="none" font-size="8px" fill="#000000" x="65.96542330986225" y="3" transform="rotate(180 65.96542330986225 0)" font-family="Helvetica Neue, Helvetica, Arial, sans-serif">FactoredBy</text></g><g class="relationship" transform="translate(-8.995418130478031 -84.83458603805173) rotate(507.77482811612833)"><path class="b-outline" fill="#A5ABB6" stroke="none" d="M 25 0.5 L 27.227175453711673 0.5 L 27.227175453711673 -0.5 L 25 -0.5 Z M 74.13342545371168 0.5 L 76.36060090742335 0.5 L 76.36060090742335 3.5 L 83.36060090742335 0 L 76.36060090742335 -3.5 L 76.36060090742335 -0.5 L 74.13342545371168 -0.5 Z"/><text text-anchor="middle" pointer-events="none" font-size="8px" fill="#000000" x="50.68030045371167" y="3" transform="rotate(180 50.68030045371167 0)" font-family="Helvetica Neue, Helvetica, Arial, sans-serif">FactoredBy</text></g><g class="relationship" transform="translate(-294.01129215347964 26.970638898086506) rotate(344.3893808343237)"><path class="b-outline" fill="#A5ABB6" stroke="none" d="M 25 0.5 L 73.42310792042728 0.5 L 73.42310792042728 -0.5 L 25 -0.5 Z M 120.32935792042728 0.5 L 168.75246584085457 0.5 L 168.75246584085457 3.5 L 175.75246584085457 0 L 168.75246584085457 -3.5 L 168.75246584085457 -0.5 L 120.32935792042728 -0.5 Z"/><text text-anchor="middle" pointer-events="none" font-size="8px" fill="#000000" x="96.87623292042728" y="3" font-family="Helvetica Neue, Helvetica, Arial, sans-serif">FactoredBy</text></g><g class="relationship" transform="translate(-239.05837361079745 92.49676759913224) rotate(319.1787741264446)"><path class="b-outline" fill="#A5ABB6" stroke="none" d="M 25 0.5 L 64.48644922496503 0.5 L 64.48644922496503 -0.5 L 25 -0.5 Z M 111.39269922496503 0.5 L 150.87914844993006 0.5 L 150.87914844993006 3.5 L 157.87914844993006 0 L 150.87914844993006 -3.5 L 150.87914844993006 -0.5 L 111.39269922496503 -0.5 Z"/><text text-anchor="middle" pointer-events="none" font-size="8px" fill="#000000" x="87.93957422496503" y="3" font-family="Helvetica Neue, Helvetica, Arial, sans-serif">FactoredBy</text></g><g class="relationship" transform="translate(-294.229222652103 -50.10945816908025) rotate(366.79319788749353)"><path class="b-outline" fill="#A5ABB6" stroke="none" d="M 25 0.5 L 70.5137262197516 0.5 L 70.5137262197516 -0.5 L 25 -0.5 Z M 117.4199762197516 0.5 L 162.9337024395032 0.5 L 162.9337024395032 3.5 L 169.9337024395032 0 L 162.9337024395032 -3.5 L 162.9337024395032 -0.5 L 117.4199762197516 -0.5 Z"/><text text-anchor="middle" pointer-events="none" font-size="8px" fill="#000000" x="93.9668512197516" y="3" font-family="Helvetica Neue, Helvetica, Arial, sans-serif">FactoredBy</text></g><g class="relationship" transform="translate(-139.34237913599014 -227.9083685333136) rotate(439.1001637911364)"><path class="b-outline" fill="#A5ABB6" stroke="none" d="M 25 0.5 L 75.32039290350112 0.5 L 75.32039290350112 -0.5 L 25 -0.5 Z M 122.22664290350112 0.5 L 172.54703580700223 0.5 L 172.54703580700223 3.5 L 179.54703580700223 0 L 172.54703580700223 -3.5 L 172.54703580700223 -0.5 L 122.22664290350112 -0.5 Z"/><text text-anchor="middle" pointer-events="none" font-size="8px" fill="#000000" x="98.77351790350112" y="3" font-family="Helvetica Neue, Helvetica, Arial, sans-serif">FactoredBy</text></g><g class="relationship" transform="translate(-199.39949183610466 6.414610914251264) rotate(341.2760440021219)"><path class="b-outline" fill="#A5ABB6" stroke="none" d="M 25 0.5 L 25.17333366795657 0.5 L 25.17333366795657 -0.5 L 25 -0.5 Z M 72.07958366795657 0.5 L 72.25291733591314 0.5 L 72.25291733591314 3.5 L 79.25291733591314 0 L 72.25291733591314 -3.5 L 72.25291733591314 -0.5 L 72.07958366795657 -0.5 Z"/><text text-anchor="middle" pointer-events="none" font-size="8px" fill="#000000" x="48.62645866795657" y="3" font-family="Helvetica Neue, Helvetica, Arial, sans-serif">FactoredBy</text></g><g class="relationship" transform="translate(-139.94974426578727 129.17455396735255) rotate(284.11532565706955)"><path class="b-outline" fill="#A5ABB6" stroke="none" d="M 25 0.5 L 53.591817104183974 0.5 L 53.591817104183974 -0.5 L 25 -0.5 Z M 100.49806710418397 0.5 L 129.08988420836795 0.5 L 129.08988420836795 3.5 L 136.08988420836795 0 L 129.08988420836795 -3.5 L 129.08988420836795 -0.5 L 100.49806710418397 -0.5 Z"/><text text-anchor="middle" pointer-events="none" font-size="8px" fill="#000000" x="77.04494210418397" y="3" font-family="Helvetica Neue, Helvetica, Arial, sans-serif">FactoredBy</text></g><g class="relationship" transform="translate(-299.729216108482 -120.97731775777976) rotate(478.3550076310363)"><path class="b-outline" fill="#A5ABB6" stroke="none" d="M 6.953439040707552 24.018736134675446 L 17.306200844808384 62.65576918623819 A 17.916697508022974 17.916697508022974 0 1 1 -17.306200844808384 62.65576918623819 L -8.765172356425198 30.780216918698923 L -4.901469051268926 31.815493099109005 L -6.4704761275630185 24.148145657226706 L -11.662949835292403 30.00375978339136 L -7.79924653013613 31.039035963801442 L -16.340275018519314 62.91458823134071 A 16.916697508022974 16.916697508022974 0 1 0 16.340275018519314 62.91458823134071 L 5.987513214418485 24.277555179777966 Z"/><text text-anchor="middle" pointer-events="none" font-size="8px" fill="#000000" x="0" y="94.20964923467838" transform="rotate(180 0 91.20964923467838)" font-family="Helvetica Neue, Helvetica, Arial, sans-serif">FactoredBy</text></g><g class="relationship" transform="translate(-218.98868048394715 -165.4606503110806) rotate(511.14779570857786)"><path class="b-outline" fill="#A5ABB6" stroke="none" d="M 25 0.5 L 25.587852687971584 0.5 L 25.587852687971584 -0.5 L 25 -0.5 Z M 59.59566518797158 0.5 L 60.18351787594317 0.5 L 60.18351787594317 3.5 L 67.18351787594317 0 L 60.18351787594317 -3.5 L 60.18351787594317 -0.5 L 59.59566518797158 -0.5 Z"/><text text-anchor="middle" pointer-events="none" font-size="8px" fill="#000000" x="42.59175893797158" y="3" transform="rotate(180 42.59175893797158 0)" font-family="Helvetica Neue, Helvetica, Arial, sans-serif">Facto…</text></g><g class="relationship" transform="translate(-294.229222652103 -50.10945816908025) rotate(265.56221955349474)"><path class="b-outline" fill="#A5ABB6" stroke="none" d="M 25 0.5 L 32.040482026499866 0.5 L 32.040482026499866 -0.5 L 25 -0.5 Z M 32.040482026499866 0.5 L 39.08096405299973 0.5 L 39.08096405299973 3.5 L 46.08096405299973 0 L 39.08096405299973 -3.5 L 39.08096405299973 -0.5 L 32.040482026499866 -0.5 Z"/><text text-anchor="middle" pointer-events="none" font-size="8px" fill="#000000" x="32.040482026499866" y="3" transform="rotate(180 32.040482026499866 0)" font-family="Helvetica Neue, Helvetica, Arial, sans-serif"/></g></g><g class="layer nodes"><g class="node" aria-label="graph-node83" transform="translate(-100.66404097604651,-27.051513996018546)"><circle class="b-outline" cx="0" cy="0" r="25" fill="#F16667" stroke="#eb2728" stroke-width="2px"/><text class="caption" text-anchor="middle" pointer-events="none" x="0" y="5" font-size="10px" fill="#FFFFFF" font-family="Helvetica Neue, Helvetica, Arial, sans-serif"> 7</text></g><g class="node" aria-label="graph-node84" transform="translate(-299.729216108482,-120.97731775777976)"><circle class="b-outline" cx="0" cy="0" r="25" fill="#DA7194" stroke="#cc3c6c" stroke-width="2px"/><text class="caption" text-anchor="middle" pointer-events="none" x="0" y="5" font-size="10px" fill="#FFFFFF" font-family="Helvetica Neue, Helvetica, Arial, sans-serif"> 49</text></g><g class="node" aria-label="graph-node85" transform="translate(56.352073007166894,38.57285155083794)"><circle class="b-outline" cx="0" cy="0" r="25" fill="#D9C8AE" stroke="#c0a378" stroke-width="2px"/><text class="caption" text-anchor="middle" pointer-events="none" x="0" y="5" font-size="10px" fill="#2A2C34" font-family="Helvetica Neue, Helvetica, Arial, sans-serif"> 91</text></g><g class="node" aria-label="graph-node86" transform="translate(-44.391269060790236,105.10534560833153)"><circle class="b-outline" cx="0" cy="0" r="25" fill="#8DCC93" stroke="#5db665" stroke-width="2px"/><text class="caption" text-anchor="middle" pointer-events="none" x="0" y="5" font-size="10px" fill="#2A2C34" font-family="Helvetica Neue, Helvetica, Arial, sans-serif"> 133</text></g><g class="node" aria-label="graph-node87" transform="translate(49.405034106369705,130.68800419747447)"><circle class="b-outline" cx="0" cy="0" r="25" fill="#ECB5C9" stroke="#da7298" stroke-width="2px"/><text class="caption" text-anchor="middle" pointer-events="none" x="0" y="5" font-size="10px" fill="#2A2C34" font-family="Helvetica Neue, Helvetica, Arial, sans-serif"> 217</text></g><g class="node" aria-label="graph-node88" transform="translate(27.930446860145388,-175.82240823556432)"><circle class="b-outline" cx="0" cy="0" r="25" fill="#4C8EDA" stroke="#2870c2" stroke-width="2px"/><text class="caption" text-anchor="middle" pointer-events="none" x="0" y="5" font-size="10px" fill="#FFFFFF" font-family="Helvetica Neue, Helvetica, Arial, sans-serif"> 259</text></g><g class="node" aria-label="graph-node89" transform="translate(72.64446533030349,-29.114572982369868)"><circle class="b-outline" cx="0" cy="0" r="25" fill="#FFC454" stroke="#d7a013" stroke-width="2px"/><text class="caption" text-anchor="middle" pointer-events="none" x="0" y="5" font-size="10px" fill="#2A2C34" font-family="Helvetica Neue, Helvetica, Arial, sans-serif"> 301</text></g><g class="node" aria-label="graph-node90" transform="translate(-218.98868048394715,-165.4606503110806)"><circle class="b-outline" cx="0" cy="0" r="25" fill="#DA7194" stroke="#cc3c6c" stroke-width="2px"/><text class="caption" text-anchor="middle" pointer-events="none" x="0" y="5" font-size="10px" fill="#FFFFFF" font-family="Helvetica Neue, Helvetica, Arial, sans-serif"> 343</text></g><g class="node" aria-label="graph-node91" transform="translate(-69.00511201219311,-162.32713027380564)"><circle class="b-outline" cx="0" cy="0" r="25" fill="#F16667" stroke="#eb2728" stroke-width="2px"/><text class="caption" text-anchor="middle" pointer-events="none" x="0" y="5" font-size="10px" fill="#FFFFFF" font-family="Helvetica Neue, Helvetica, Arial, sans-serif"> 427</text></g><g class="node" aria-label="graph-node92" transform="translate(-8.995418130478031,-84.83458603805173)"><circle class="b-outline" cx="0" cy="0" r="25" fill="#F16667" stroke="#eb2728" stroke-width="2px"/><text class="caption" text-anchor="middle" pointer-events="none" x="0" y="5" font-size="10px" fill="#FFFFFF" font-family="Helvetica Neue, Helvetica, Arial, sans-serif"> 469</text></g><g class="node" aria-label="graph-node93" transform="translate(-294.01129215347964,26.970638898086506)"><circle class="b-outline" cx="0" cy="0" r="25" fill="#F16667" stroke="#eb2728" stroke-width="2px"/><text class="caption" text-anchor="middle" pointer-events="none" x="0" y="5" font-size="10px" fill="#FFFFFF" font-family="Helvetica Neue, Helvetica, Arial, sans-serif"> 511</text></g><g class="node" aria-label="graph-node94" transform="translate(-239.05837361079745,92.49676759913224)"><circle class="b-outline" cx="0" cy="0" r="25" fill="#F16667" stroke="#eb2728" stroke-width="2px"/><text class="caption" text-anchor="middle" pointer-events="none" x="0" y="5" font-size="10px" fill="#FFFFFF" font-family="Helvetica Neue, Helvetica, Arial, sans-serif"> 553</text></g><g class="node" aria-label="graph-node95" transform="translate(-294.229222652103,-50.10945816908025)"><circle class="b-outline" cx="0" cy="0" r="25" fill="#DA7194" stroke="#cc3c6c" stroke-width="2px"/><text class="caption" text-anchor="middle" pointer-events="none" x="0" y="5" font-size="10px" fill="#FFFFFF" font-family="Helvetica Neue, Helvetica, Arial, sans-serif"> 637</text></g><g class="node" aria-label="graph-node96" transform="translate(-139.34237913599014,-227.9083685333136)"><circle class="b-outline" cx="0" cy="0" r="25" fill="#F16667" stroke="#eb2728" stroke-width="2px"/><text class="caption" text-anchor="middle" pointer-events="none" x="0" y="5" font-size="10px" fill="#FFFFFF" font-family="Helvetica Neue, Helvetica, Arial, sans-serif"> 679</text></g><g class="node" aria-label="graph-node97" transform="translate(-199.39949183610466,6.414610914251264)"><circle class="b-outline" cx="0" cy="0" r="25" fill="#F16667" stroke="#eb2728" stroke-width="2px"/><text class="caption" text-anchor="middle" pointer-events="none" x="0" y="5" font-size="10px" fill="#FFFFFF" font-family="Helvetica Neue, Helvetica, Arial, sans-serif"> 721</text></g><g class="node" aria-label="graph-node98" transform="translate(-139.94974426578727,129.17455396735255)"><circle class="b-outline" cx="0" cy="0" r="25" fill="#F16667" stroke="#eb2728" stroke-width="2px"/><text class="caption" text-anchor="middle" pointer-events="none" x="0" y="5" font-size="10px" fill="#FFFFFF" font-family="Helvetica Neue, Helvetica, Arial, sans-serif"> 763</text></g></g></svg>