<svg xmlns="http://www.w3.org/2000/svg" width="1465.925537109375" height="1309.901123046875" viewBox="-713.7958374023438 -619.1403198242188 1465.925537109375 1309.901123046875"><title>Neo4j Graph Visualization</title><desc>Created using Neo4j (http://www.neo4j.com/)</desc><g class="layer relationships"><g class="relationship" transform="translate(-20.8901714859536 471.72800059107874) rotate(420.8882470348046)"><path class="b-outline" fill="#A5ABB6" stroke="none" d="M 6.953439040707552 24.018736134675446 L 17.306200844808384 62.65576918623819 A 17.916697508022974 17.916697508022974 0 1 1 -17.306200844808384 62.65576918623819 L -8.765172356425198 30.780216918698923 L -4.901469051268926 31.815493099109005 L -6.4704761275630185 24.148145657226706 L -11.662949835292403 30.00375978339136 L -7.79924653013613 31.039035963801442 L -16.340275018519314 62.91458823134071 A 16.916697508022974 16.916697508022974 0 1 0 16.340275018519314 62.91458823134071 L 5.987513214418485 24.277555179777966 Z"/><text text-anchor="middle" pointer-events="none" font-size="8px" fill="#000000" x="0" y="94.20964923467838" font-family="Helvetica Neue, Helvetica, Arial, sans-serif">FactoredBy</text></g><g class="relationship" transform="translate(-54.59704458019115 614.0749002070465) rotate(283.3219142920726)"><path class="b-outline" fill="#A5ABB6" stroke="none" d="M 25 0.5 L 46.18850665405432 0.5 L 46.18850665405432 -0.5 L 25 -0.5 Z M 93.09475665405432 0.5 L 114.28326330810864 0.5 L 114.28326330810864 3.5 L 121.28326330810864 0 L 114.28326330810864 -3.5 L 114.28326330810864 -0.5 L 93.09475665405432 -0.5 Z"/><text text-anchor="middle" pointer-events="none" font-size="8px" fill="#000000" x="69.64163165405432" y="3" font-family="Helvetica Neue, Helvetica, Arial, sans-serif">FactoredBy</text></g><g class="relationship" transform="translate(196.43268790763852 92.54282957373017) rotate(479.8183684687313)"><path class="b-outline" fill="#A5ABB6" stroke="none" d="M 25 0.5 L 191.57068327638834 0.5 L 191.57068327638834 -0.5 L 25 -0.5 Z M 238.47693327638834 0.5 L 405.0476165527767 0.5 L 405.0476165527767 3.5 L 412.0476165527767 0 L 405.0476165527767 -3.5 L 405.0476165527767 -0.5 L 238.47693327638834 -0.5 Z"/><text text-anchor="middle" pointer-events="none" font-size="8px" fill="#000000" x="215.02380827638834" y="3" transform="rotate(180 215.02380827638834 0)" font-family="Helvetica Neue, Helvetica, Arial, sans-serif">FactoredBy</text></g><g class="relationship" transform="translate(250.71630546960498 550.9957995330761) rotate(196.26977774561192)"><path class="b-outline" fill="#A5ABB6" stroke="none" d="M 25 0.5 L 114.51547776517128 0.5 L 114.51547776517128 -0.5 L 25 -0.5 Z M 161.42172776517128 0.5 L 250.93720553034257 0.5 L 250.93720553034257 3.5 L 257.93720553034257 0 L 250.93720553034257 -3.5 L 250.93720553034257 -0.5 L 161.42172776517128 -0.5 Z"/><text text-anchor="middle" pointer-events="none" font-size="8px" fill="#000000" x="137.96860276517128" y="3" transform="rotate(180 137.96860276517128 0)" font-family="Helvetica Neue, Helvetica, Arial, sans-serif">FactoredBy</text></g><g class="relationship" transform="translate(-65.30244509363621 329.41846248346803) rotate(432.667786448893)"><path class="b-outline" fill="#A5ABB6" stroke="none" d="M 25 0.5 L 47.58621810718931 0.5 L 47.58621810718931 -0.5 L 25 -0.5 Z M 94.49246810718931 0.5 L 117.07868621437862 0.5 L 117.07868621437862 3.5 L 124.07868621437862 0 L 117.07868621437862 -3.5 L 117.07868621437862 -0.5 L 94.49246810718931 -0.5 Z"/><text text-anchor="middle" pointer-events="none" font-size="8px" fill="#000000" x="71.03934310718931" y="3" font-family="Helvetica Neue, Helvetica, Arial, sans-serif">FactoredBy</text></g><g class="relationship" transform="translate(-23.068188866202775 -315.83222580080485) rotate(449.8415475016712)"><path class="b-outline" fill="#A5ABB6" stroke="none" d="M 25 0.5 L 366.82849403336206 0.5 L 366.82849403336206 -0.5 L 25 -0.5 Z M 413.73474403336206 0.5 L 755.5632380667241 0.5 L 755.5632380667241 3.5 L 762.5632380667241 0 L 755.5632380667241 -3.5 L 755.5632380667241 -0.5 L 413.73474403336206 -0.5 Z"/><text text-anchor="middle" pointer-events="none" font-size="8px" fill="#000000" x="390.28161903336206" y="3" font-family="Helvetica Neue, Helvetica, Arial, sans-serif">FactoredBy</text></g><g class="relationship" transform="translate(406.3819779933642 188.70879809493397) rotate(506.48005586889246)"><path class="b-outline" fill="#A5ABB6" stroke="none" d="M 25 0.5 L 229.29936703775087 0.5 L 229.29936703775087 -0.5 L 25 -0.5 Z M 276.20561703775087 0.5 L 480.50498407550174 0.5 L 480.50498407550174 3.5 L 487.50498407550174 0 L 480.50498407550174 -3.5 L 480.50498407550174 -0.5 L 276.20561703775087 -0.5 Z"/><text text-anchor="middle" pointer-events="none" font-size="8px" fill="#000000" x="252.75249203775087" y="3" transform="rotate(180 252.75249203775087 0)" font-family="Helvetica Neue, Helvetica, Arial, sans-serif">FactoredBy</text></g><g class="relationship" transform="translate(-290.8212521849622 28.50069192180109) rotate(418.6580524908485)"><path class="b-outline" fill="#A5ABB6" stroke="none" d="M 25 0.5 L 232.52386602114325 0.5 L 232.52386602114325 -0.5 L 25 -0.5 Z M 279.43011602114325 0.5 L 486.9539820422865 0.5 L 486.9539820422865 3.5 L 493.9539820422865 0 L 486.9539820422865 -3.5 L 486.9539820422865 -0.5 L 279.43011602114325 -0.5 Z"/><text text-anchor="middle" pointer-events="none" font-size="8px" fill="#000000" x="255.97699102114325" y="3" font-family="Helvetica Neue, Helvetica, Arial, sans-serif">FactoredBy</text></g><g class="relationship" transform="translate(-295.7522776890187 380.00264815365534) rotate(378.4545797775365)"><path class="b-outline" fill="#A5ABB6" stroke="none" d="M 25 0.5 L 117.92847985906636 0.5 L 117.92847985906636 -0.5 L 25 -0.5 Z M 164.83472985906636 0.5 L 257.7632097181327 0.5 L 257.7632097181327 3.5 L 264.7632097181327 0 L 257.7632097181327 -3.5 L 257.7632097181327 -0.5 L 164.83472985906636 -0.5 Z"/><text text-anchor="middle" pointer-events="none" font-size="8px" fill="#000000" x="141.38160485906636" y="3" font-family="Helvetica Neue, Helvetica, Arial, sans-serif">FactoredBy</text></g><g class="relationship" transform="translate(292.7054665256689 -110.03110878653814) rotate(251.01583196335042)"><path class="b-outline" fill="#A5ABB6" stroke="none" d="M 6.953439040707552 24.018736134675446 L 17.306200844808384 62.65576918623819 A 17.916697508022974 17.916697508022974 0 1 1 -17.306200844808384 62.65576918623819 L -8.765172356425198 30.780216918698923 L -4.901469051268926 31.815493099109005 L -6.4704761275630185 24.148145657226706 L -11.662949835292403 30.00375978339136 L -7.79924653013613 31.039035963801442 L -16.340275018519314 62.91458823134071 A 16.916697508022974 16.916697508022974 0 1 0 16.340275018519314 62.91458823134071 L 5.987513214418485 24.277555179777966 Z"/><text text-anchor="middle" pointer-events="none" font-size="8px" fill="#000000" x="0" y="94.20964923467838" transform="rotate(180 0 91.20964923467838)" font-family="Helvetica Neue, Helvetica, Arial, sans-serif">FactoredBy</text></g><g class="relationship" transform="translate(196.43268790763852 92.54282957373017) rotate(295.4192919919898)"><path class="b-outline" fill="#A5ABB6" stroke="none" d="M 25 0.5 L 85.19036389439154 0.5 L 85.19036389439154 -0.5 L 25 -0.5 Z M 132.09661389439154 0.5 L 192.28697778878308 0.5 L 192.28697778878308 3.5 L 199.28697778878308 0 L 192.28697778878308 -3.5 L 192.28697778878308 -0.5 L 132.09661389439154 -0.5 Z"/><text text-anchor="middle" pointer-events="none" font-size="8px" fill="#000000" x="108.64348889439154" y="3" font-family="Helvetica Neue, Helvetica, Arial, sans-serif">FactoredBy</text></g><g class="relationship" transform="translate(375.15714632133614 -233.50615839646449) rotate(483.733407937975)"><path class="b-outline" fill="#A5ABB6" stroke="none" d="M 25 0.5 L 47.283603405320065 0.5 L 47.283603405320065 -0.5 L 25 -0.5 Z M 94.18985340532006 0.5 L 116.47345681064013 0.5 L 116.47345681064013 3.5 L 123.47345681064013 0 L 116.47345681064013 -3.5 L 116.47345681064013 -0.5 L 94.18985340532006 -0.5 Z"/><text text-anchor="middle" pointer-events="none" font-size="8px" fill="#000000" x="70.73672840532006" y="3" transform="rotate(180 70.73672840532006 0)" font-family="Helvetica Neue, Helvetica, Arial, sans-serif">FactoredBy</text></g><g class="relationship" transform="translate(426.90973847750115 388.3222811528054) rotate(254.92805948145337)"><path class="b-outline" fill="#A5ABB6" stroke="none" d="M 25 0.5 L 231.10059415269728 0.5 L 231.10059415269728 -0.5 L 25 -0.5 Z M 278.0068441526973 0.5 L 484.10743830539457 0.5 L 484.10743830539457 3.5 L 491.10743830539457 0 L 484.10743830539457 -3.5 L 484.10743830539457 -0.5 L 278.0068441526973 -0.5 Z"/><text text-anchor="middle" pointer-events="none" font-size="8px" fill="#000000" x="254.55371915269728" y="3" transform="rotate(180 254.55371915269728 0)" font-family="Helvetica Neue, Helvetica, Arial, sans-serif">FactoredBy</text></g><g class="relationship" transform="translate(46.24930509520027 171.1863961050486) rotate(311.23099509435986)"><path class="b-outline" fill="#A5ABB6" stroke="none" d="M 25 0.5 L 160.01206197640664 0.5 L 160.01206197640664 -0.5 L 25 -0.5 Z M 206.91831197640664 0.5 L 341.9303739528133 0.5 L 341.9303739528133 3.5 L 348.9303739528133 0 L 341.9303739528133 -3.5 L 341.9303739528133 -0.5 L 206.91831197640664 -0.5 Z"/><text text-anchor="middle" pointer-events="none" font-size="8px" fill="#000000" x="183.46518697640664" y="3" font-family="Helvetica Neue, Helvetica, Arial, sans-serif">FactoredBy</text></g><g class="relationship" transform="translate(212.00073101170648 -305.89152219746796) rotate(427.6057768354286)"><path class="b-outline" fill="#A5ABB6" stroke="none" d="M 25 0.5 L 78.96495168651154 0.5 L 78.96495168651154 -0.5 L 25 -0.5 Z M 125.87120168651154 0.5 L 179.83615337302308 0.5 L 179.83615337302308 3.5 L 186.83615337302308 0 L 179.83615337302308 -3.5 L 179.83615337302308 -0.5 L 125.87120168651154 -0.5 Z"/><text text-anchor="middle" pointer-events="none" font-size="8px" fill="#000000" x="102.41807668651154" y="3" font-family="Helvetica Neue, Helvetica, Arial, sans-serif">FactoredBy</text></g><g class="relationship" transform="translate(484.8543221316814 -46.4904389378693) rotate(198.29825598872583)"><path class="b-outline" fill="#A5ABB6" stroke="none" d="M 25 0.5 L 74.23803004271825 0.5 L 74.23803004271825 -0.5 L 25 -0.5 Z M 121.14428004271825 0.5 L 170.3823100854365 0.5 L 170.3823100854365 3.5 L 177.3823100854365 0 L 170.3823100854365 -3.5 L 170.3823100854365 -0.5 L 121.14428004271825 -0.5 Z"/><text text-anchor="middle" pointer-events="none" font-size="8px" fill="#000000" x="97.69115504271825" y="3" transform="rotate(180 97.69115504271825 0)" font-family="Helvetica Neue, Helvetica, Arial, sans-serif">FactoredBy</text></g><g class="relationship" transform="translate(-117.01818613906681 -166.84149440207236) rotate(367.8940359806832)"><path class="b-outline" fill="#A5ABB6" stroke="none" d="M 25 0.5 L 179.86859258952123 0.5 L 179.86859258952123 -0.5 L 25 -0.5 Z M 226.77484258952123 0.5 L 381.64343517904246 0.5 L 381.64343517904246 3.5 L 388.64343517904246 0 L 381.64343517904246 -3.5 L 381.64343517904246 -0.5 L 226.77484258952123 -0.5 Z"/><text text-anchor="middle" pointer-events="none" font-size="8px" fill="#000000" x="203.32171758952123" y="3" font-family="Helvetica Neue, Helvetica, Arial, sans-serif">FactoredBy</text></g><g class="relationship" transform="translate(-326.10831022107334 162.21504597484162) rotate(336.2529806380394)"><path class="b-outline" fill="#A5ABB6" stroke="none" d="M 25 0.5 L 311.07367093263167 0.5 L 311.07367093263167 -0.5 L 25 -0.5 Z M 357.97992093263167 0.5 L 644.0535918652633 0.5 L 644.0535918652633 3.5 L 651.0535918652633 0 L 644.0535918652633 -3.5 L 644.0535918652633 -0.5 L 357.97992093263167 -0.5 Z"/><text text-anchor="middle" pointer-events="none" font-size="8px" fill="#000000" x="334.52679593263167" y="3" font-family="Helvetica Neue, Helvetica, Arial, sans-serif">FactoredBy</text></g><g class="relationship" transform="translate(424.48059879152845 547.3374476356611) rotate(305.17467190317393)"><path class="b-outline" fill="#A5ABB6" stroke="none" d="M 6.953439040707552 24.018736134675446 L 17.306200844808384 62.65576918623819 A 17.916697508022974 17.916697508022974 0 1 1 -17.306200844808384 62.65576918623819 L -8.765172356425198 30.780216918698923 L -4.901469051268926 31.815493099109005 L -6.4704761275630185 24.148145657226706 L -11.662949835292403 30.00375978339136 L -7.79924653013613 31.039035963801442 L -16.340275018519314 62.91458823134071 A 16.916697508022974 16.916697508022974 0 1 0 16.340275018519314 62.91458823134071 L 5.987513214418485 24.277555179777966 Z"/><text text-anchor="middle" pointer-events="none" font-size="8px" fill="#000000" x="0" y="94.20964923467838" font-family="Helvetica Neue, Helvetica, Arial, sans-serif">FactoredBy</text></g><g class="relationship" transform="translate(250.71630546960498 550.9957995330761) rotate(358.79389972334593)"><path class="b-outline" fill="#A5ABB6" stroke="none" d="M 25 0.5 L 59.948274833766746 0.5 L 59.948274833766746 -0.5 L 25 -0.5 Z M 106.85452483376675 0.5 L 141.8027996675335 0.5 L 141.8027996675335 3.5 L 148.8027996675335 0 L 141.8027996675335 -3.5 L 141.8027996675335 -0.5 L 106.85452483376675 -0.5 Z"/><text text-anchor="middle" pointer-events="none" font-size="8px" fill="#000000" x="83.40139983376675" y="3" font-family="Helvetica Neue, Helvetica, Arial, sans-serif">FactoredBy</text></g><g class="relationship" transform="translate(426.90973847750115 388.3222811528054) rotate(450.8751909022616)"><path class="b-outline" fill="#A5ABB6" stroke="none" d="M 25 0.5 L 52.56373467639864 0.5 L 52.56373467639864 -0.5 L 25 -0.5 Z M 99.46998467639864 0.5 L 127.03371935279728 0.5 L 127.03371935279728 3.5 L 134.03371935279728 0 L 127.03371935279728 -3.5 L 127.03371935279728 -0.5 L 99.46998467639864 -0.5 Z"/><text text-anchor="middle" pointer-events="none" font-size="8px" fill="#000000" x="76.01685967639864" y="3" transform="rotate(180 76.01685967639864 0)" font-family="Helvetica Neue, Helvetica, Arial, sans-serif">FactoredBy</text></g><g class="relationship" transform="translate(338.73246398767986 661.7608331382507) rotate(306.84764914378445)"><path class="b-outline" fill="#A5ABB6" stroke="none" d="M 25 0.5 L 44.54067503226371 0.5 L 44.54067503226371 -0.5 L 25 -0.5 Z M 91.4469250322637 0.5 L 110.98760006452741 0.5 L 110.98760006452741 3.5 L 117.98760006452741 0 L 110.98760006452741 -3.5 L 110.98760006452741 -0.5 L 91.4469250322637 -0.5 Z"/><text text-anchor="middle" pointer-events="none" font-size="8px" fill="#000000" x="67.9938000322637" y="3" font-family="Helvetica Neue, Helvetica, Arial, sans-serif">FactoredBy</text></g><g class="relationship" transform="translate(31.371466301497804 288.38723379222233) rotate(393.3738342956963)"><path class="b-outline" fill="#A5ABB6" stroke="none" d="M 25 0.5 L 208.413611868566 0.5 L 208.413611868566 -0.5 L 25 -0.5 Z M 255.319861868566 0.5 L 438.733473737132 0.5 L 438.733473737132 3.5 L 445.733473737132 0 L 438.733473737132 -3.5 L 438.733473737132 -0.5 L 255.319861868566 -0.5 Z"/><text text-anchor="middle" pointer-events="none" font-size="8px" fill="#000000" x="231.866736868566" y="3" font-family="Helvetica Neue, Helvetica, Arial, sans-serif">FactoredBy</text></g><g class="relationship" transform="translate(122.94955533313075 -261.0113138716639) rotate(429.54342960208487)"><path class="b-outline" fill="#A5ABB6" stroke="none" d="M 25 0.5 L 404.42509953142445 0.5 L 404.42509953142445 -0.5 L 25 -0.5 Z M 451.33134953142445 0.5 L 830.7564490628489 0.5 L 830.7564490628489 3.5 L 837.7564490628489 0 L 830.7564490628489 -3.5 L 830.7564490628489 -0.5 L 451.33134953142445 -0.5 Z"/><text text-anchor="middle" pointer-events="none" font-size="8px" fill="#000000" x="427.87822453142445" y="3" font-family="Helvetica Neue, Helvetica, Arial, sans-serif">FactoredBy</text></g><g class="relationship" transform="translate(546.2984164153283 363.3026285172448) rotate(483.5016946625634)"><path class="b-outline" fill="#A5ABB6" stroke="none" d="M 25 0.5 L 83.39676777132712 0.5 L 83.39676777132712 -0.5 L 25 -0.5 Z M 130.30301777132712 0.5 L 188.69978554265424 0.5 L 188.69978554265424 3.5 L 195.69978554265424 0 L 188.69978554265424 -3.5 L 188.69978554265424 -0.5 L 130.30301777132712 -0.5 Z"/><text text-anchor="middle" pointer-events="none" font-size="8px" fill="#000000" x="106.84989277132712" y="3" transform="rotate(180 106.84989277132712 0)" font-family="Helvetica Neue, Helvetica, Arial, sans-serif">FactoredBy</text></g><g class="relationship" transform="translate(-153.15799675777015 -25.196144921984597) rotate(404.74569615910355)"><path class="b-outline" fill="#A5ABB6" stroke="none" d="M 25 0.5 L 379.69815732772435 0.5 L 379.69815732772435 -0.5 L 25 -0.5 Z M 426.60440732772435 0.5 L 781.3025646554487 0.5 L 781.3025646554487 3.5 L 788.3025646554487 0 L 781.3025646554487 -3.5 L 781.3025646554487 -0.5 L 426.60440732772435 -0.5 Z"/><text text-anchor="middle" pointer-events="none" font-size="8px" fill="#000000" x="403.15128232772435" y="3" font-family="Helvetica Neue, Helvetica, Arial, sans-serif">FactoredBy</text></g><g class="relationship" transform="translate(-250.83358292764837 286.7838268294253) rotate(381.09790012603844)"><path class="b-outline" fill="#A5ABB6" stroke="none" d="M 25 0.5 L 334.96448763659197 0.5 L 334.96448763659197 -0.5 L 25 -0.5 Z M 381.87073763659197 0.5 L 691.8352252731839 0.5 L 691.8352252731839 3.5 L 698.8352252731839 0 L 691.8352252731839 -3.5 L 691.8352252731839 -0.5 L 381.87073763659197 -0.5 Z"/><text text-anchor="middle" pointer-events="none" font-size="8px" fill="#000000" x="358.41761263659197" y="3" font-family="Helvetica Neue, Helvetica, Arial, sans-serif">FactoredBy</text></g><g class="relationship" transform="translate(-103.50853710677683 154.3714963105324) rotate(406.7279861767148)"><path class="b-outline" fill="#A5ABB6" stroke="none" d="M 6.953439040707552 24.018736134675446 L 17.306200844808384 62.65576918623819 A 17.916697508022974 17.916697508022974 0 1 1 -17.306200844808384 62.65576918623819 L -8.765172356425198 30.780216918698923 L -4.901469051268926 31.815493099109005 L -6.4704761275630185 24.148145657226706 L -11.662949835292403 30.00375978339136 L -7.79924653013613 31.039035963801442 L -16.340275018519314 62.91458823134071 A 16.916697508022974 16.916697508022974 0 1 0 16.340275018519314 62.91458823134071 L 5.987513214418485 24.277555179777966 Z"/><text text-anchor="middle" pointer-events="none" font-size="8px" fill="#000000" x="0" y="94.20964923467838" font-family="Helvetica Neue, Helvetica, Arial, sans-serif">FactoredBy</text></g><g class="relationship" transform="translate(-65.30244509363621 329.41846248346803) rotate(257.68760171812977)"><path class="b-outline" fill="#A5ABB6" stroke="none" d="M 25 0.5 L 62.63083817598569 0.5 L 62.63083817598569 -0.5 L 25 -0.5 Z M 109.53708817598569 0.5 L 147.16792635197137 0.5 L 147.16792635197137 3.5 L 154.16792635197137 0 L 147.16792635197137 -3.5 L 147.16792635197137 -0.5 L 109.53708817598569 -0.5 Z"/><text text-anchor="middle" pointer-events="none" font-size="8px" fill="#000000" x="86.08396317598569" y="3" transform="rotate(180 86.08396317598569 0)" font-family="Helvetica Neue, Helvetica, Arial, sans-serif">FactoredBy</text></g><g class="relationship" transform="translate(46.24930509520027 171.1863961050486) rotate(186.40637262312976)"><path class="b-outline" fill="#A5ABB6" stroke="none" d="M 25 0.5 L 48.39631454020477 0.5 L 48.39631454020477 -0.5 L 25 -0.5 Z M 95.30256454020477 0.5 L 118.69887908040954 0.5 L 118.69887908040954 3.5 L 125.69887908040954 0 L 118.69887908040954 -3.5 L 118.69887908040954 -0.5 L 95.30256454020477 -0.5 Z"/><text text-anchor="middle" pointer-events="none" font-size="8px" fill="#000000" x="71.84943954020477" y="3" transform="rotate(180 71.84943954020477 0)" font-family="Helvetica Neue, Helvetica, Arial, sans-serif">FactoredBy</text></g><g class="relationship" transform="translate(31.371466301497804 288.38723379222233) rotate(224.8158445377852)"><path class="b-outline" fill="#A5ABB6" stroke="none" d="M 25 0.5 L 68.11636696795128 0.5 L 68.11636696795128 -0.5 L 25 -0.5 Z M 115.02261696795128 0.5 L 158.13898393590256 0.5 L 158.13898393590256 3.5 L 165.13898393590256 0 L 158.13898393590256 -3.5 L 158.13898393590256 -0.5 L 115.02261696795128 -0.5 Z"/><text text-anchor="middle" pointer-events="none" font-size="8px" fill="#000000" x="91.56949196795128" y="3" transform="rotate(180 91.56949196795128 0)" font-family="Helvetica Neue, Helvetica, Arial, sans-serif">FactoredBy</text></g><g class="relationship" transform="translate(-20.8780346196057 108.88394080552348) rotate(511.16750164521557)"><path class="b-outline" fill="#A5ABB6" stroke="none" d="M 25 0.5 L 25.32579923409319 0.5 L 25.32579923409319 -0.5 L 25 -0.5 Z M 61.99767423409319 0.5 L 62.32347346818638 0.5 L 62.32347346818638 3.5 L 69.32347346818638 0 L 62.32347346818638 -3.5 L 62.32347346818638 -0.5 L 61.99767423409319 -0.5 Z"/><text text-anchor="middle" pointer-events="none" font-size="8px" fill="#000000" x="43.66173673409319" y="3" transform="rotate(180 43.66173673409319 0)" font-family="Helvetica Neue, Helvetica, Arial, sans-serif">Factor…</text></g><g class="relationship" transform="translate(32.29531791354948 -255.1737109850444) rotate(468.34535262063014)"><path class="b-outline" fill="#A5ABB6" stroke="none" d="M 25 0.5 L 188.78396259573466 0.5 L 188.78396259573466 -0.5 L 25 -0.5 Z M 235.69021259573466 0.5 L 399.4741751914693 0.5 L 399.4741751914693 3.5 L 406.4741751914693 0 L 399.4741751914693 -3.5 L 399.4741751914693 -0.5 L 235.69021259573466 -0.5 Z"/><text text-anchor="middle" pointer-events="none" font-size="8px" fill="#000000" x="212.23708759573466" y="3" transform="rotate(180 212.23708759573466 0)" font-family="Helvetica Neue, Helvetica, Arial, sans-serif">FactoredBy</text></g><g class="relationship" transform="translate(407.91541351358126 112.89654385467993) rotate(535.363629962222)"><path class="b-outline" fill="#A5ABB6" stroke="none" d="M 25 0.5 L 229.59834593193096 0.5 L 229.59834593193096 -0.5 L 25 -0.5 Z M 276.50459593193096 0.5 L 481.10294186386193 0.5 L 481.10294186386193 3.5 L 488.10294186386193 0 L 481.10294186386193 -3.5 L 481.10294186386193 -0.5 L 276.50459593193096 -0.5 Z"/><text text-anchor="middle" pointer-events="none" font-size="8px" fill="#000000" x="253.05147093193096" y="3" transform="rotate(180 253.05147093193096 0)" font-family="Helvetica Neue, Helvetica, Arial, sans-serif">FactoredBy</text></g><g class="relationship" transform="translate(-216.43919407789497 42.31030743381814) rotate(404.77858484578314)"><path class="b-outline" fill="#A5ABB6" stroke="none" d="M 25 0.5 L 52.59409892452011 0.5 L 52.59409892452011 -0.5 L 25 -0.5 Z M 99.50034892452011 0.5 L 127.09444784904022 0.5 L 127.09444784904022 3.5 L 134.09444784904022 0 L 127.09444784904022 -3.5 L 127.09444784904022 -0.5 L 99.50034892452011 -0.5 Z"/><text text-anchor="middle" pointer-events="none" font-size="8px" fill="#000000" x="76.04722392452011" y="3" font-family="Helvetica Neue, Helvetica, Arial, sans-serif">FactoredBy</text></g><g class="relationship" transform="translate(-364.36099295783197 80.71319785448597) rotate(375.76837063529973)"><path class="b-outline" fill="#A5ABB6" stroke="none" d="M 25 0.5 L 108.57320883863696 0.5 L 108.57320883863696 -0.5 L 25 -0.5 Z M 155.47945883863696 0.5 L 239.05266767727392 0.5 L 239.05266767727392 3.5 L 246.05266767727392 0 L 239.05266767727392 -3.5 L 239.05266767727392 -0.5 L 155.47945883863696 -0.5 Z"/><text text-anchor="middle" pointer-events="none" font-size="8px" fill="#000000" x="132.02633383863696" y="3" font-family="Helvetica Neue, Helvetica, Arial, sans-serif">FactoredBy</text></g><g class="relationship" transform="translate(62.73249355548778 -443.8252760085573) rotate(480.2964956051824)"><path class="b-outline" fill="#A5ABB6" stroke="none" d="M 6.953439040707552 24.018736134675446 L 17.306200844808384 62.65576918623819 A 17.916697508022974 17.916697508022974 0 1 1 -17.306200844808384 62.65576918623819 L -8.765172356425198 30.780216918698923 L -4.901469051268926 31.815493099109005 L -6.4704761275630185 24.148145657226706 L -11.662949835292403 30.00375978339136 L -7.79924653013613 31.039035963801442 L -16.340275018519314 62.91458823134071 A 16.916697508022974 16.916697508022974 0 1 0 16.340275018519314 62.91458823134071 L 5.987513214418485 24.277555179777966 Z"/><text text-anchor="middle" pointer-events="none" font-size="8px" fill="#000000" x="0" y="94.20964923467838" transform="rotate(180 0 91.20964923467838)" font-family="Helvetica Neue, Helvetica, Arial, sans-serif">FactoredBy</text></g><g class="relationship" transform="translate(-23.068188866202775 -315.83222580080485) rotate(303.8360906505984)"><path class="b-outline" fill="#A5ABB6" stroke="none" d="M 25 0.5 L 50.09228045274591 0.5 L 50.09228045274591 -0.5 L 25 -0.5 Z M 96.99853045274591 0.5 L 122.09081090549182 0.5 L 122.09081090549182 3.5 L 129.09081090549182 0 L 122.09081090549182 -3.5 L 122.09081090549182 -0.5 L 96.99853045274591 -0.5 Z"/><text text-anchor="middle" pointer-events="none" font-size="8px" fill="#000000" x="73.54540545274591" y="3" font-family="Helvetica Neue, Helvetica, Arial, sans-serif">FactoredBy</text></g><g class="relationship" transform="translate(212.00073101170648 -305.89152219746796) rotate(222.73998351802993)"><path class="b-outline" fill="#A5ABB6" stroke="none" d="M 25 0.5 L 74.66715736738014 0.5 L 74.66715736738014 -0.5 L 25 -0.5 Z M 121.57340736738014 0.5 L 171.24056473476028 0.5 L 171.24056473476028 3.5 L 178.24056473476028 0 L 171.24056473476028 -3.5 L 171.24056473476028 -0.5 L 121.57340736738014 -0.5 Z"/><text text-anchor="middle" pointer-events="none" font-size="8px" fill="#000000" x="98.12028236738014" y="3" transform="rotate(180 98.12028236738014 0)" font-family="Helvetica Neue, Helvetica, Arial, sans-serif">FactoredBy</text></g><g class="relationship" transform="translate(122.94955533313075 -261.0113138716639) rotate(251.76864214001012)"><path class="b-outline" fill="#A5ABB6" stroke="none" d="M 25 0.5 L 69.28491228428011 0.5 L 69.28491228428011 -0.5 L 25 -0.5 Z M 116.19116228428011 0.5 L 160.47607456856022 0.5 L 160.47607456856022 3.5 L 167.47607456856022 0 L 160.47607456856022 -3.5 L 160.47607456856022 -0.5 L 116.19116228428011 -0.5 Z"/><text text-anchor="middle" pointer-events="none" font-size="8px" fill="#000000" x="92.73803728428011" y="3" transform="rotate(180 92.73803728428011 0)" font-family="Helvetica Neue, Helvetica, Arial, sans-serif">FactoredBy</text></g><g class="relationship" transform="translate(32.29531791354948 -255.1737109850444) rotate(279.1651602771712)"><path class="b-outline" fill="#A5ABB6" stroke="none" d="M 25 0.5 L 68.59245920837526 0.5 L 68.59245920837526 -0.5 L 25 -0.5 Z M 115.49870920837526 0.5 L 159.09116841675052 0.5 L 159.09116841675052 3.5 L 166.09116841675052 0 L 159.09116841675052 -3.5 L 159.09116841675052 -0.5 L 115.49870920837526 -0.5 Z"/><text text-anchor="middle" pointer-events="none" font-size="8px" fill="#000000" x="92.04558420837526" y="3" font-family="Helvetica Neue, Helvetica, Arial, sans-serif">FactoredBy</text></g><g class="relationship" transform="translate(56.63567434271564 -590.1402922041832) rotate(447.6139151608627)"><path class="b-outline" fill="#A5ABB6" stroke="none" d="M 25 0.5 L 46.267867838187286 0.5 L 46.267867838187286 -0.5 L 25 -0.5 Z M 93.17411783818729 0.5 L 114.44198567637457 0.5 L 114.44198567637457 3.5 L 121.44198567637457 0 L 114.44198567637457 -3.5 L 114.44198567637457 -0.5 L 93.17411783818729 -0.5 Z"/><text text-anchor="middle" pointer-events="none" font-size="8px" fill="#000000" x="69.72099283818729" y="3" font-family="Helvetica Neue, Helvetica, Arial, sans-serif">FactoredBy</text></g><g class="relationship" transform="translate(561.7776660874126 -324.10309288324106) rotate(193.4904509242249)"><path class="b-outline" fill="#A5ABB6" stroke="none" d="M 25 0.5 L 229.64943020927223 0.5 L 229.64943020927223 -0.5 L 25 -0.5 Z M 276.5556802092722 0.5 L 481.20511041854445 0.5 L 481.20511041854445 3.5 L 488.20511041854445 0 L 481.20511041854445 -3.5 L 481.20511041854445 -0.5 L 276.5556802092722 -0.5 Z"/><text text-anchor="middle" pointer-events="none" font-size="8px" fill="#000000" x="253.10255520927223" y="3" transform="rotate(180 253.10255520927223 0)" font-family="Helvetica Neue, Helvetica, Arial, sans-serif">FactoredBy</text></g><g class="relationship" transform="translate(-252.26964021168283 -283.17874376932275) rotate(332.97907604950205)"><path class="b-outline" fill="#A5ABB6" stroke="none" d="M 25 0.5 L 149.8473646757655 0.5 L 149.8473646757655 -0.5 L 25 -0.5 Z M 196.7536146757655 0.5 L 321.600979351531 0.5 L 321.600979351531 3.5 L 328.600979351531 0 L 321.600979351531 -3.5 L 321.600979351531 -0.5 L 196.7536146757655 -0.5 Z"/><text text-anchor="middle" pointer-events="none" font-size="8px" fill="#000000" x="173.3004896757655" y="3" font-family="Helvetica Neue, Helvetica, Arial, sans-serif">FactoredBy</text></g><g class="relationship" transform="translate(-454.04759904179286 48.25231353937508) rotate(316.40264225519866)"><path class="b-outline" fill="#A5ABB6" stroke="none" d="M 25 0.5 L 329.8388375776894 0.5 L 329.8388375776894 -0.5 L 25 -0.5 Z M 376.7450875776894 0.5 L 681.5839251553788 0.5 L 681.5839251553788 3.5 L 688.5839251553788 0 L 681.5839251553788 -3.5 L 681.5839251553788 -0.5 L 376.7450875776894 -0.5 Z"/><text text-anchor="middle" pointer-events="none" font-size="8px" fill="#000000" x="353.2919625776894" y="3" font-family="Helvetica Neue, Helvetica, Arial, sans-serif">FactoredBy</text></g><g class="relationship" transform="translate(651.7731157904489 181.76158036482514) rotate(285.36270242701676)"><path class="b-outline" fill="#A5ABB6" stroke="none" d="M 6.953439040707552 24.018736134675446 L 17.306200844808384 62.65576918623819 A 17.916697508022974 17.916697508022974 0 1 1 -17.306200844808384 62.65576918623819 L -8.765172356425198 30.780216918698923 L -4.901469051268926 31.815493099109005 L -6.4704761275630185 24.148145657226706 L -11.662949835292403 30.00375978339136 L -7.79924653013613 31.039035963801442 L -16.340275018519314 62.91458823134071 A 16.916697508022974 16.916697508022974 0 1 0 16.340275018519314 62.91458823134071 L 5.987513214418485 24.277555179777966 Z"/><text text-anchor="middle" pointer-events="none" font-size="8px" fill="#000000" x="0" y="94.20964923467838" font-family="Helvetica Neue, Helvetica, Arial, sans-serif">FactoredBy</text></g><g class="relationship" transform="translate(406.3819779933642 188.70879809493397) rotate(358.378344201207)"><path class="b-outline" fill="#A5ABB6" stroke="none" d="M 25 0.5 L 95.79160436091524 0.5 L 95.79160436091524 -0.5 L 25 -0.5 Z M 142.69785436091524 0.5 L 213.4894587218305 0.5 L 213.4894587218305 3.5 L 220.4894587218305 0 L 213.4894587218305 -3.5 L 213.4894587218305 -0.5 L 142.69785436091524 -0.5 Z"/><text text-anchor="middle" pointer-events="none" font-size="8px" fill="#000000" x="119.24472936091524" y="3" font-family="Helvetica Neue, Helvetica, Arial, sans-serif">FactoredBy</text></g><g class="relationship" transform="translate(484.8543221316814 -46.4904389378693) rotate(413.82230741110567)"><path class="b-outline" fill="#A5ABB6" stroke="none" d="M 25 0.5 L 114.43363887153058 0.5 L 114.43363887153058 -0.5 L 25 -0.5 Z M 161.33988887153058 0.5 L 250.77352774306115 0.5 L 250.77352774306115 3.5 L 257.77352774306115 0 L 250.77352774306115 -3.5 L 250.77352774306115 -0.5 L 161.33988887153058 -0.5 Z"/><text text-anchor="middle" pointer-events="none" font-size="8px" fill="#000000" x="137.88676387153058" y="3" font-family="Helvetica Neue, Helvetica, Arial, sans-serif">FactoredBy</text></g><g class="relationship" transform="translate(546.2984164153283 363.3026285172448) rotate(300.15643449150656)"><path class="b-outline" fill="#A5ABB6" stroke="none" d="M 25 0.5 L 78.02552089114207 0.5 L 78.02552089114207 -0.5 L 25 -0.5 Z M 124.93177089114207 0.5 L 177.95729178228413 0.5 L 177.95729178228413 3.5 L 184.95729178228413 0 L 177.95729178228413 -3.5 L 177.95729178228413 -0.5 L 124.93177089114207 -0.5 Z"/><text text-anchor="middle" pointer-events="none" font-size="8px" fill="#000000" x="101.47864589114207" y="3" font-family="Helvetica Neue, Helvetica, Arial, sans-serif">FactoredBy</text></g><g class="relationship" transform="translate(407.91541351358126 112.89654385467993) rotate(375.7695973129545)"><path class="b-outline" fill="#A5ABB6" stroke="none" d="M 25 0.5 L 99.74432190925803 0.5 L 99.74432190925803 -0.5 L 25 -0.5 Z M 146.65057190925802 0.5 L 221.39489381851607 0.5 L 221.39489381851607 3.5 L 228.39489381851607 0 L 221.39489381851607 -3.5 L 221.39489381851607 -0.5 L 146.65057190925802 -0.5 Z"/><text text-anchor="middle" pointer-events="none" font-size="8px" fill="#000000" x="123.19744690925803" y="3" font-family="Helvetica Neue, Helvetica, Arial, sans-serif">FactoredBy</text></g><g class="relationship" transform="translate(561.7776660874126 -324.10309288324106) rotate(439.9123806540415)"><path class="b-outline" fill="#A5ABB6" stroke="none" d="M 25 0.5 L 229.95067441119227 0.5 L 229.95067441119227 -0.5 L 25 -0.5 Z M 276.85692441119227 0.5 L 481.80759882238453 0.5 L 481.80759882238453 3.5 L 488.80759882238453 0 L 481.80759882238453 -3.5 L 481.80759882238453 -0.5 L 276.85692441119227 -0.5 Z"/><text text-anchor="middle" pointer-events="none" font-size="8px" fill="#000000" x="253.40379941119227" y="3" font-family="Helvetica Neue, Helvetica, Arial, sans-serif">FactoredBy</text></g><g class="relationship" transform="translate(653.99787110606 -42.26572995961537) rotate(450.5689703625269)"><path class="b-outline" fill="#A5ABB6" stroke="none" d="M 25 0.5 L 85.06605338858834 0.5 L 85.06605338858834 -0.5 L 25 -0.5 Z M 131.97230338858833 0.5 L 192.0383567771767 0.5 L 192.0383567771767 3.5 L 199.0383567771767 0 L 192.0383567771767 -3.5 L 192.0383567771767 -0.5 L 131.97230338858833 -0.5 Z"/><text text-anchor="middle" pointer-events="none" font-size="8px" fill="#000000" x="108.51917838858834" y="3" transform="rotate(180 108.51917838858834 0)" font-family="Helvetica Neue, Helvetica, Arial, sans-serif">FactoredBy</text></g><g class="relationship" transform="translate(-141.28526709614607 -104.2939712476924) rotate(379.83433514893693)"><path class="b-outline" fill="#A5ABB6" stroke="none" d="M 25 0.5 L 394.5825725616189 0.5 L 394.5825725616189 -0.5 L 25 -0.5 Z M 441.4888225616189 0.5 L 811.0713951232378 0.5 L 811.0713951232378 3.5 L 818.0713951232378 0 L 811.0713951232378 -3.5 L 811.0713951232378 -0.5 L 441.4888225616189 -0.5 Z"/><text text-anchor="middle" pointer-events="none" font-size="8px" fill="#000000" x="418.0356975616189" y="3" font-family="Helvetica Neue, Helvetica, Arial, sans-serif">FactoredBy</text></g><g class="relationship" transform="translate(-304.5791264640902 223.61745076402588) rotate(357.49398269460767)"><path class="b-outline" fill="#A5ABB6" stroke="none" d="M 25 0.5 L 451.68074476690214 0.5 L 451.68074476690214 -0.5 L 25 -0.5 Z M 498.58699476690214 0.5 L 925.2677395338043 0.5 L 925.2677395338043 3.5 L 932.2677395338043 0 L 925.2677395338043 -3.5 L 925.2677395338043 -0.5 L 498.58699476690214 -0.5 Z"/><text text-anchor="middle" pointer-events="none" font-size="8px" fill="#000000" x="475.13386976690214" y="3" font-family="Helvetica Neue, Helvetica, Arial, sans-serif">FactoredBy</text></g><g class="relationship" transform="translate(-367.3227969446808 -143.8856681551946) rotate(463.3822159024664)"><path class="b-outline" fill="#A5ABB6" stroke="none" d="M 6.953439040707552 24.018736134675446 L 17.306200844808384 62.65576918623819 A 17.916697508022974 17.916697508022974 0 1 1 -17.306200844808384 62.65576918623819 L -8.765172356425198 30.780216918698923 L -4.901469051268926 31.815493099109005 L -6.4704761275630185 24.148145657226706 L -11.662949835292403 30.00375978339136 L -7.79924653013613 31.039035963801442 L -16.340275018519314 62.91458823134071 A 16.916697508022974 16.916697508022974 0 1 0 16.340275018519314 62.91458823134071 L 5.987513214418485 24.277555179777966 Z"/><text text-anchor="middle" pointer-events="none" font-size="8px" fill="#000000" x="0" y="94.20964923467838" transform="rotate(180 0 91.20964923467838)" font-family="Helvetica Neue, Helvetica, Arial, sans-serif">FactoredBy</text></g><g class="relationship" transform="translate(-290.8212521849622 28.50069192180109) rotate(246.0693297414149)"><path class="b-outline" fill="#A5ABB6" stroke="none" d="M 25 0.5 L 67.3463228923642 0.5 L 67.3463228923642 -0.5 L 25 -0.5 Z M 114.2525728923642 0.5 L 156.5988957847284 0.5 L 156.5988957847284 3.5 L 163.5988957847284 0 L 156.5988957847284 -3.5 L 156.5988957847284 -0.5 L 114.2525728923642 -0.5 Z"/><text text-anchor="middle" pointer-events="none" font-size="8px" fill="#000000" x="90.7994478923642" y="3" transform="rotate(180 90.7994478923642 0)" font-family="Helvetica Neue, Helvetica, Arial, sans-serif">FactoredBy</text></g><g class="relationship" transform="translate(-117.01818613906681 -166.84149440207236) rotate(534.7599731979442)"><path class="b-outline" fill="#A5ABB6" stroke="none" d="M 25 0.5 L 98.72440695104798 0.5 L 98.72440695104798 -0.5 L 25 -0.5 Z M 145.63065695104797 0.5 L 219.35506390209596 0.5 L 219.35506390209596 3.5 L 226.35506390209596 0 L 219.35506390209596 -3.5 L 219.35506390209596 -0.5 L 145.63065695104797 -0.5 Z"/><text text-anchor="middle" pointer-events="none" font-size="8px" fill="#000000" x="122.17753195104798" y="3" transform="rotate(180 122.17753195104798 0)" font-family="Helvetica Neue, Helvetica, Arial, sans-serif">FactoredBy</text></g><g class="relationship" transform="translate(-153.15799675777015 -25.196144921984597) rotate(208.9950955172818)"><path class="b-outline" fill="#A5ABB6" stroke="none" d="M 25 0.5 L 95.47416420100501 0.5 L 95.47416420100501 -0.5 L 25 -0.5 Z M 142.380414201005 0.5 L 212.85457840201002 0.5 L 212.85457840201002 3.5 L 219.85457840201002 0 L 212.85457840201002 -3.5 L 212.85457840201002 -0.5 L 142.380414201005 -0.5 Z"/><text text-anchor="middle" pointer-events="none" font-size="8px" fill="#000000" x="118.92728920100501" y="3" transform="rotate(180 118.92728920100501 0)" font-family="Helvetica Neue, Helvetica, Arial, sans-serif">FactoredBy</text></g><g class="relationship" transform="translate(-216.43919407789497 42.31030743381814) rotate(230.98047746559672)"><path class="b-outline" fill="#A5ABB6" stroke="none" d="M 25 0.5 L 92.87467116975998 0.5 L 92.87467116975998 -0.5 L 25 -0.5 Z M 139.78092116975998 0.5 L 207.65559233951996 0.5 L 207.65559233951996 3.5 L 214.65559233951996 0 L 207.65559233951996 -3.5 L 207.65559233951996 -0.5 L 139.78092116975998 -0.5 Z"/><text text-anchor="middle" pointer-events="none" font-size="8px" fill="#000000" x="116.32779616975998" y="3" transform="rotate(180 116.32779616975998 0)" font-family="Helvetica Neue, Helvetica, Arial, sans-serif">FactoredBy</text></g><g class="relationship" transform="translate(-252.26964021168283 -283.17874376932275) rotate(489.55599160173415)"><path class="b-outline" fill="#A5ABB6" stroke="none" d="M 25 0.5 L 63.37930243925216 0.5 L 63.37930243925216 -0.5 L 25 -0.5 Z M 110.28555243925216 0.5 L 148.66485487850431 0.5 L 148.66485487850431 3.5 L 155.66485487850431 0 L 148.66485487850431 -3.5 L 148.66485487850431 -0.5 L 110.28555243925216 -0.5 Z"/><text text-anchor="middle" pointer-events="none" font-size="8px" fill="#000000" x="86.83242743925216" y="3" transform="rotate(180 86.83242743925216 0)" font-family="Helvetica Neue, Helvetica, Arial, sans-serif">FactoredBy</text></g><g class="relationship" transform="translate(-141.28526709614607 -104.2939712476924) rotate(189.93488519356993)"><path class="b-outline" fill="#A5ABB6" stroke="none" d="M 25 0.5 L 87.78621803895368 0.5 L 87.78621803895368 -0.5 L 25 -0.5 Z M 134.69246803895368 0.5 L 197.47868607790735 0.5 L 197.47868607790735 3.5 L 204.47868607790735 0 L 197.47868607790735 -3.5 L 197.47868607790735 -0.5 L 134.69246803895368 -0.5 Z"/><text text-anchor="middle" pointer-events="none" font-size="8px" fill="#000000" x="111.23934303895368" y="3" transform="rotate(180 111.23934303895368 0)" font-family="Helvetica Neue, Helvetica, Arial, sans-serif">FactoredBy</text></g><g class="relationship" transform="translate(-444.45023478305654 -273.6156819418695) rotate(419.26755578391555)"><path class="b-outline" fill="#A5ABB6" stroke="none" d="M 25 0.5 L 48.509644205422376 0.5 L 48.509644205422376 -0.5 L 25 -0.5 Z M 95.41589420542238 0.5 L 118.92553841084475 0.5 L 118.92553841084475 3.5 L 125.92553841084475 0 L 118.92553841084475 -3.5 L 118.92553841084475 -0.5 L 95.41589420542238 -0.5 Z"/><text text-anchor="middle" pointer-events="none" font-size="8px" fill="#000000" x="71.96276920542238" y="3" font-family="Helvetica Neue, Helvetica, Arial, sans-serif">FactoredBy</text></g><g class="relationship" transform="translate(-560.1830715712399 -21.005338937721657) rotate(327.4968760210173)"><path class="b-outline" fill="#A5ABB6" stroke="none" d="M 25 0.5 L 87.38700447957764 0.5 L 87.38700447957764 -0.5 L 25 -0.5 Z M 134.29325447957763 0.5 L 196.68025895915528 0.5 L 196.68025895915528 3.5 L 203.68025895915528 0 L 196.68025895915528 -3.5 L 196.68025895915528 -0.5 L 134.29325447957763 -0.5 Z"/><text text-anchor="middle" pointer-events="none" font-size="8px" fill="#000000" x="110.84012947957764" y="3" font-family="Helvetica Neue, Helvetica, Arial, sans-serif">FactoredBy</text></g><g class="relationship" transform="translate(-544.5281249944021 240.04895528067374) rotate(371.5961638238843)"><path class="b-outline" fill="#A5ABB6" stroke="none" d="M 6.953439040707552 24.018736134675446 L 17.306200844808384 62.65576918623819 A 17.916697508022974 17.916697508022974 0 1 1 -17.306200844808384 62.65576918623819 L -8.765172356425198 30.780216918698923 L -4.901469051268926 31.815493099109005 L -6.4704761275630185 24.148145657226706 L -11.662949835292403 30.00375978339136 L -7.79924653013613 31.039035963801442 L -16.340275018519314 62.91458823134071 A 16.916697508022974 16.916697508022974 0 1 0 16.340275018519314 62.91458823134071 L 5.987513214418485 24.277555179777966 Z"/><text text-anchor="middle" pointer-events="none" font-size="8px" fill="#000000" x="0" y="94.20964923467838" font-family="Helvetica Neue, Helvetica, Arial, sans-serif">FactoredBy</text></g><g class="relationship" transform="translate(-295.7522776890187 380.00264815365534) rotate(209.3607764461209)"><path class="b-outline" fill="#A5ABB6" stroke="none" d="M 25 0.5 L 115.76728204757003 0.5 L 115.76728204757003 -0.5 L 25 -0.5 Z M 162.67353204757003 0.5 L 253.44081409514007 0.5 L 253.44081409514007 3.5 L 260.44081409514007 0 L 253.44081409514007 -3.5 L 253.44081409514007 -0.5 L 162.67353204757003 -0.5 Z"/><text text-anchor="middle" pointer-events="none" font-size="8px" fill="#000000" x="139.22040704757003" y="3" transform="rotate(180 139.22040704757003 0)" font-family="Helvetica Neue, Helvetica, Arial, sans-serif">FactoredBy</text></g><g class="relationship" transform="translate(-326.10831022107334 162.21504597484162) rotate(520.3864726464844)"><path class="b-outline" fill="#A5ABB6" stroke="none" d="M 25 0.5 L 88.98363893129549 0.5 L 88.98363893129549 -0.5 L 25 -0.5 Z M 135.8898889312955 0.5 L 199.87352786259098 0.5 L 199.87352786259098 3.5 L 206.87352786259098 0 L 199.87352786259098 -3.5 L 199.87352786259098 -0.5 L 135.8898889312955 -0.5 Z"/><text text-anchor="middle" pointer-events="none" font-size="8px" fill="#000000" x="112.43676393129549" y="3" transform="rotate(180 112.43676393129549 0)" font-family="Helvetica Neue, Helvetica, Arial, sans-serif">FactoredBy</text></g><g class="relationship" transform="translate(-250.83358292764837 286.7838268294253) rotate(189.0415262702445)"><path class="b-outline" fill="#A5ABB6" stroke="none" d="M 25 0.5 L 121.74172381669447 0.5 L 121.74172381669447 -0.5 L 25 -0.5 Z M 168.64797381669447 0.5 L 265.38969763338895 0.5 L 265.38969763338895 3.5 L 272.38969763338895 0 L 265.38969763338895 -3.5 L 265.38969763338895 -0.5 L 168.64797381669447 -0.5 Z"/><text text-anchor="middle" pointer-events="none" font-size="8px" fill="#000000" x="145.19484881669447" y="3" transform="rotate(180 145.19484881669447 0)" font-family="Helvetica Neue, Helvetica, Arial, sans-serif">FactoredBy</text></g><g class="relationship" transform="translate(-364.36099295783197 80.71319785448597) rotate(498.5111788690168)"><path class="b-outline" fill="#A5ABB6" stroke="none" d="M 25 0.5 L 93.30501304152699 0.5 L 93.30501304152699 -0.5 L 25 -0.5 Z M 140.211263041527 0.5 L 208.51627608305398 0.5 L 208.51627608305398 3.5 L 215.51627608305398 0 L 208.51627608305398 -3.5 L 208.51627608305398 -0.5 L 140.211263041527 -0.5 Z"/><text text-anchor="middle" pointer-events="none" font-size="8px" fill="#000000" x="116.75813804152699" y="3" transform="rotate(180 116.75813804152699 0)" font-family="Helvetica Neue, Helvetica, Arial, sans-serif">FactoredBy</text></g><g class="relationship" transform="translate(-454.04759904179286 48.25231353937508) rotate(475.2557076163286)"><path class="b-outline" fill="#A5ABB6" stroke="none" d="M 25 0.5 L 79.0806872486182 0.5 L 79.0806872486182 -0.5 L 25 -0.5 Z M 125.9869372486182 0.5 L 180.0676244972364 0.5 L 180.0676244972364 3.5 L 187.0676244972364 0 L 180.0676244972364 -3.5 L 180.0676244972364 -0.5 L 125.9869372486182 -0.5 Z"/><text text-anchor="middle" pointer-events="none" font-size="8px" fill="#000000" x="102.5338122486182" y="3" transform="rotate(180 102.5338122486182 0)" font-family="Helvetica Neue, Helvetica, Arial, sans-serif">FactoredBy</text></g><g class="relationship" transform="translate(-304.5791264640902 223.61745076402588) rotate(536.082549320658)"><path class="b-outline" fill="#A5ABB6" stroke="none" d="M 25 0.5 L 93.30234913359219 0.5 L 93.30234913359219 -0.5 L 25 -0.5 Z M 140.2085991335922 0.5 L 208.51094826718438 0.5 L 208.51094826718438 3.5 L 215.51094826718438 0 L 208.51094826718438 -3.5 L 208.51094826718438 -0.5 L 140.2085991335922 -0.5 Z"/><text text-anchor="middle" pointer-events="none" font-size="8px" fill="#000000" x="116.75547413359219" y="3" transform="rotate(180 116.75547413359219 0)" font-family="Helvetica Neue, Helvetica, Arial, sans-serif">FactoredBy</text></g><g class="relationship" transform="translate(-560.1830715712399 -21.005338937721657) rotate(446.56818719954117)"><path class="b-outline" fill="#A5ABB6" stroke="none" d="M 25 0.5 L 103.80851108087447 0.5 L 103.80851108087447 -0.5 L 25 -0.5 Z M 150.71476108087447 0.5 L 229.52327216174893 0.5 L 229.52327216174893 3.5 L 236.52327216174893 0 L 229.52327216174893 -3.5 L 229.52327216174893 -0.5 L 150.71476108087447 -0.5 Z"/><text text-anchor="middle" pointer-events="none" font-size="8px" fill="#000000" x="127.26163608087447" y="3" font-family="Helvetica Neue, Helvetica, Arial, sans-serif">FactoredBy</text></g><g class="relationship" transform="translate(-684.7957784447846 255.20875034191226) rotate(353.8315512016477)"><path class="b-outline" fill="#A5ABB6" stroke="none" d="M 25 0.5 L 43.58912119115722 0.5 L 43.58912119115722 -0.5 L 25 -0.5 Z M 90.49537119115722 0.5 L 109.08449238231444 0.5 L 109.08449238231444 3.5 L 116.08449238231444 0 L 109.08449238231444 -3.5 L 109.08449238231444 -0.5 L 90.49537119115722 -0.5 Z"/><text text-anchor="middle" pointer-events="none" font-size="8px" fill="#000000" x="67.04224619115722" y="3" font-family="Helvetica Neue, Helvetica, Arial, sans-serif">FactoredBy</text></g></g><g class="layer nodes"><g class="node" aria-label="graph-node172" transform="translate(-20.8901714859536,471.72800059107874)"><circle class="b-outline" cx="0" cy="0" r="25" fill="#604A0E" stroke="#423204" stroke-width="2px"/><text class="caption" text-anchor="middle" pointer-events="none" x="0" y="5" font-size="10px" fill="#FFFFFF" font-family="Helvetica Neue, Helvetica, Arial, sans-serif"> 6001</text></g><g class="node" aria-label="graph-node173" transform="translate(-54.59704458019115,614.0749002070465)"><circle class="b-outline" cx="0" cy="0" r="25" fill="#604A0E" stroke="#423204" stroke-width="2px"/><text class="caption" text-anchor="middle" pointer-events="none" x="0" y="5" font-size="10px" fill="#FFFFFF" font-family="Helvetica Neue, Helvetica, Arial, sans-serif"> 36012001</text></g><g class="node" aria-label="graph-node174" transform="translate(196.43268790763852,92.54282957373017)"><circle class="b-outline" cx="0" cy="0" r="25" fill="#D9C8AE" stroke="#c0a378" stroke-width="2px"/><text class="caption" text-anchor="middle" pointer-events="none" x="0" y="5" font-size="10px" fill="#2A2C34" font-family="Helvetica Neue, Helvetica, Arial, sans-serif"> 36048007</text></g><g class="node" aria-label="graph-node175" transform="translate(250.71630546960498,550.9957995330761)"><circle class="b-outline" cx="0" cy="0" r="25" fill="#DA7194" stroke="#cc3c6c" stroke-width="2px"/><text class="caption" text-anchor="middle" pointer-events="none" x="0" y="5" font-size="10px" fill="#FFFFFF" font-family="Helvetica Neue, Helvetica, Arial, sans-serif"> 36084013</text></g><g class="node" aria-label="graph-node176" transform="translate(-65.30244509363621,329.41846248346803)"><circle class="b-outline" cx="0" cy="0" r="25" fill="#F79767" stroke="#f36924" stroke-width="2px"/><text class="caption" text-anchor="middle" pointer-events="none" x="0" y="5" font-size="10px" fill="#FFFFFF" font-family="Helvetica Neue, Helvetica, Arial, sans-serif"> 36120019</text></g><g class="node" aria-label="graph-node177" transform="translate(-23.068188866202775,-315.83222580080485)"><circle class="b-outline" cx="0" cy="0" r="25" fill="#4C8EDA" stroke="#2870c2" stroke-width="2px"/><text class="caption" text-anchor="middle" pointer-events="none" x="0" y="5" font-size="10px" fill="#FFFFFF" font-family="Helvetica Neue, Helvetica, Arial, sans-serif"> 36192031</text></g><g class="node" aria-label="graph-node178" transform="translate(406.3819779933642,188.70879809493397)"><circle class="b-outline" cx="0" cy="0" r="25" fill="#ECB5C9" stroke="#da7298" stroke-width="2px"/><text class="caption" text-anchor="middle" pointer-events="none" x="0" y="5" font-size="10px" fill="#2A2C34" font-family="Helvetica Neue, Helvetica, Arial, sans-serif"> 36228037</text></g><g class="node" aria-label="graph-node179" transform="translate(-290.8212521849622,28.50069192180109)"><circle class="b-outline" cx="0" cy="0" r="25" fill="#F16667" stroke="#eb2728" stroke-width="2px"/><text class="caption" text-anchor="middle" pointer-events="none" x="0" y="5" font-size="10px" fill="#FFFFFF" font-family="Helvetica Neue, Helvetica, Arial, sans-serif"> 36264043</text></g><g class="node" aria-label="graph-node180" transform="translate(-295.7522776890187,380.00264815365534)"><circle class="b-outline" cx="0" cy="0" r="25" fill="#569480" stroke="#447666" stroke-width="2px"/><text class="caption" text-anchor="middle" pointer-events="none" x="0" y="5" font-size="10px" fill="#FFFFFF" font-family="Helvetica Neue, Helvetica, Arial, sans-serif"> 36300049</text></g><g class="node" aria-label="graph-node181" transform="translate(292.7054665256689,-110.03110878653814)"><circle class="b-outline" cx="0" cy="0" r="25" fill="#D9C8AE" stroke="#c0a378" stroke-width="2px"/><text class="caption" text-anchor="middle" pointer-events="none" x="0" y="5" font-size="10px" fill="#2A2C34" font-family="Helvetica Neue, Helvetica, Arial, sans-serif"> 6007</text></g><g class="node" aria-label="graph-node182" transform="translate(375.15714632133614,-233.50615839646449)"><circle class="b-outline" cx="0" cy="0" r="25" fill="#D9C8AE" stroke="#c0a378" stroke-width="2px"/><text class="caption" text-anchor="middle" pointer-events="none" x="0" y="5" font-size="10px" fill="#2A2C34" font-family="Helvetica Neue, Helvetica, Arial, sans-serif"> 36084049</text></g><g class="node" aria-label="graph-node183" transform="translate(426.90973847750115,388.3222811528054)"><circle class="b-outline" cx="0" cy="0" r="25" fill="#DA7194" stroke="#cc3c6c" stroke-width="2px"/><text class="caption" text-anchor="middle" pointer-events="none" x="0" y="5" font-size="10px" fill="#FFFFFF" font-family="Helvetica Neue, Helvetica, Arial, sans-serif"> 36120091</text></g><g class="node" aria-label="graph-node184" transform="translate(46.24930509520027,171.1863961050486)"><circle class="b-outline" cx="0" cy="0" r="25" fill="#F79767" stroke="#f36924" stroke-width="2px"/><text class="caption" text-anchor="middle" pointer-events="none" x="0" y="5" font-size="10px" fill="#FFFFFF" font-family="Helvetica Neue, Helvetica, Arial, sans-serif"> 36156133</text></g><g class="node" aria-label="graph-node185" transform="translate(212.00073101170648,-305.89152219746796)"><circle class="b-outline" cx="0" cy="0" r="25" fill="#4C8EDA" stroke="#2870c2" stroke-width="2px"/><text class="caption" text-anchor="middle" pointer-events="none" x="0" y="5" font-size="10px" fill="#FFFFFF" font-family="Helvetica Neue, Helvetica, Arial, sans-serif"> 36228217</text></g><g class="node" aria-label="graph-node186" transform="translate(484.8543221316814,-46.4904389378693)"><circle class="b-outline" cx="0" cy="0" r="25" fill="#ECB5C9" stroke="#da7298" stroke-width="2px"/><text class="caption" text-anchor="middle" pointer-events="none" x="0" y="5" font-size="10px" fill="#2A2C34" font-family="Helvetica Neue, Helvetica, Arial, sans-serif"> 36264259</text></g><g class="node" aria-label="graph-node187" transform="translate(-117.01818613906681,-166.84149440207236)"><circle class="b-outline" cx="0" cy="0" r="25" fill="#F16667" stroke="#eb2728" stroke-width="2px"/><text class="caption" text-anchor="middle" pointer-events="none" x="0" y="5" font-size="10px" fill="#FFFFFF" font-family="Helvetica Neue, Helvetica, Arial, sans-serif"> 36300301</text></g><g class="node" aria-label="graph-node188" transform="translate(-326.10831022107334,162.21504597484162)"><circle class="b-outline" cx="0" cy="0" r="25" fill="#569480" stroke="#447666" stroke-width="2px"/><text class="caption" text-anchor="middle" pointer-events="none" x="0" y="5" font-size="10px" fill="#FFFFFF" font-family="Helvetica Neue, Helvetica, Arial, sans-serif"> 36336343</text></g><g class="node" aria-label="graph-node189" transform="translate(424.48059879152845,547.3374476356611)"><circle class="b-outline" cx="0" cy="0" r="25" fill="#DA7194" stroke="#cc3c6c" stroke-width="2px"/><text class="caption" text-anchor="middle" pointer-events="none" x="0" y="5" font-size="10px" fill="#FFFFFF" font-family="Helvetica Neue, Helvetica, Arial, sans-serif"> 6013</text></g><g class="node" aria-label="graph-node190" transform="translate(338.73246398767986,661.7608331382507)"><circle class="b-outline" cx="0" cy="0" r="25" fill="#DA7194" stroke="#cc3c6c" stroke-width="2px"/><text class="caption" text-anchor="middle" pointer-events="none" x="0" y="5" font-size="10px" fill="#FFFFFF" font-family="Helvetica Neue, Helvetica, Arial, sans-serif"> 36156169</text></g><g class="node" aria-label="graph-node191" transform="translate(31.371466301497804,288.38723379222233)"><circle class="b-outline" cx="0" cy="0" r="25" fill="#F79767" stroke="#f36924" stroke-width="2px"/><text class="caption" text-anchor="middle" pointer-events="none" x="0" y="5" font-size="10px" fill="#FFFFFF" font-family="Helvetica Neue, Helvetica, Arial, sans-serif"> 36192247</text></g><g class="node" aria-label="graph-node192" transform="translate(122.94955533313075,-261.0113138716639)"><circle class="b-outline" cx="0" cy="0" r="25" fill="#4C8EDA" stroke="#2870c2" stroke-width="2px"/><text class="caption" text-anchor="middle" pointer-events="none" x="0" y="5" font-size="10px" fill="#FFFFFF" font-family="Helvetica Neue, Helvetica, Arial, sans-serif"> 36264403</text></g><g class="node" aria-label="graph-node193" transform="translate(546.2984164153283,363.3026285172448)"><circle class="b-outline" cx="0" cy="0" r="25" fill="#ECB5C9" stroke="#da7298" stroke-width="2px"/><text class="caption" text-anchor="middle" pointer-events="none" x="0" y="5" font-size="10px" fill="#2A2C34" font-family="Helvetica Neue, Helvetica, Arial, sans-serif"> 36300481</text></g><g class="node" aria-label="graph-node194" transform="translate(-153.15799675777015,-25.196144921984597)"><circle class="b-outline" cx="0" cy="0" r="25" fill="#F16667" stroke="#eb2728" stroke-width="2px"/><text class="caption" text-anchor="middle" pointer-events="none" x="0" y="5" font-size="10px" fill="#FFFFFF" font-family="Helvetica Neue, Helvetica, Arial, sans-serif"> 36336559</text></g><g class="node" aria-label="graph-node195" transform="translate(-250.83358292764837,286.7838268294253)"><circle class="b-outline" cx="0" cy="0" r="25" fill="#569480" stroke="#447666" stroke-width="2px"/><text class="caption" text-anchor="middle" pointer-events="none" x="0" y="5" font-size="10px" fill="#FFFFFF" font-family="Helvetica Neue, Helvetica, Arial, sans-serif"> 36372637</text></g><g class="node" aria-label="graph-node196" transform="translate(-103.50853710677683,154.3714963105324)"><circle class="b-outline" cx="0" cy="0" r="25" fill="#F79767" stroke="#f36924" stroke-width="2px"/><text class="caption" text-anchor="middle" pointer-events="none" x="0" y="5" font-size="10px" fill="#FFFFFF" font-family="Helvetica Neue, Helvetica, Arial, sans-serif"> 6019</text></g><g class="node" aria-label="graph-node197" transform="translate(-20.8780346196057,108.88394080552348)"><circle class="b-outline" cx="0" cy="0" r="25" fill="#F79767" stroke="#f36924" stroke-width="2px"/><text class="caption" text-anchor="middle" pointer-events="none" x="0" y="5" font-size="10px" fill="#FFFFFF" font-family="Helvetica Neue, Helvetica, Arial, sans-serif"> 36228361</text></g><g class="node" aria-label="graph-node198" transform="translate(32.29531791354948,-255.1737109850444)"><circle class="b-outline" cx="0" cy="0" r="25" fill="#4C8EDA" stroke="#2870c2" stroke-width="2px"/><text class="caption" text-anchor="middle" pointer-events="none" x="0" y="5" font-size="10px" fill="#FFFFFF" font-family="Helvetica Neue, Helvetica, Arial, sans-serif"> 36300589</text></g><g class="node" aria-label="graph-node199" transform="translate(407.91541351358126,112.89654385467993)"><circle class="b-outline" cx="0" cy="0" r="25" fill="#ECB5C9" stroke="#da7298" stroke-width="2px"/><text class="caption" text-anchor="middle" pointer-events="none" x="0" y="5" font-size="10px" fill="#2A2C34" font-family="Helvetica Neue, Helvetica, Arial, sans-serif"> 36336703</text></g><g class="node" aria-label="graph-node200" transform="translate(-216.43919407789497,42.31030743381814)"><circle class="b-outline" cx="0" cy="0" r="25" fill="#F16667" stroke="#eb2728" stroke-width="2px"/><text class="caption" text-anchor="middle" pointer-events="none" x="0" y="5" font-size="10px" fill="#FFFFFF" font-family="Helvetica Neue, Helvetica, Arial, sans-serif"> 36372817</text></g><g class="node" aria-label="graph-node201" transform="translate(-364.36099295783197,80.71319785448597)"><circle class="b-outline" cx="0" cy="0" r="25" fill="#569480" stroke="#447666" stroke-width="2px"/><text class="caption" text-anchor="middle" pointer-events="none" x="0" y="5" font-size="10px" fill="#FFFFFF" font-family="Helvetica Neue, Helvetica, Arial, sans-serif"> 36408931</text></g><g class="node" aria-label="graph-node202" transform="translate(62.73249355548778,-443.8252760085573)"><circle class="b-outline" cx="0" cy="0" r="25" fill="#4C8EDA" stroke="#2870c2" stroke-width="2px"/><text class="caption" text-anchor="middle" pointer-events="none" x="0" y="5" font-size="10px" fill="#FFFFFF" font-family="Helvetica Neue, Helvetica, Arial, sans-serif"> 6031</text></g><g class="node" aria-label="graph-node203" transform="translate(56.63567434271564,-590.1402922041832)"><circle class="b-outline" cx="0" cy="0" r="25" fill="#4C8EDA" stroke="#2870c2" stroke-width="2px"/><text class="caption" text-anchor="middle" pointer-events="none" x="0" y="5" font-size="10px" fill="#FFFFFF" font-family="Helvetica Neue, Helvetica, Arial, sans-serif"> 36372961</text></g><g class="node selected" aria-label="graph-node204" transform="translate(561.7776660874126,-324.10309288324106)"><circle class="b-outline" cx="0" cy="0" r="25" fill="#ECB5C9" stroke="#da7298" stroke-width="2px"/><text class="caption" text-anchor="middle" pointer-events="none" x="0" y="5" font-size="10px" fill="#2A2C34" font-family="Helvetica Neue, Helvetica, Arial, sans-serif"> 36409147</text></g><g class="node" aria-label="graph-node205" transform="translate(-252.26964021168283,-283.17874376932275)"><circle class="b-outline" cx="0" cy="0" r="25" fill="#F16667" stroke="#eb2728" stroke-width="2px"/><text class="caption" text-anchor="middle" pointer-events="none" x="0" y="5" font-size="10px" fill="#FFFFFF" font-family="Helvetica Neue, Helvetica, Arial, sans-serif"> 36445333</text></g><g class="node" aria-label="graph-node206" transform="translate(-454.04759904179286,48.25231353937508)"><circle class="b-outline" cx="0" cy="0" r="25" fill="#569480" stroke="#447666" stroke-width="2px"/><text class="caption" text-anchor="middle" pointer-events="none" x="0" y="5" font-size="10px" fill="#FFFFFF" font-family="Helvetica Neue, Helvetica, Arial, sans-serif"> 36481519</text></g><g class="node" aria-label="graph-node207" transform="translate(651.7731157904489,181.76158036482514)"><circle class="b-outline" cx="0" cy="0" r="25" fill="#ECB5C9" stroke="#da7298" stroke-width="2px"/><text class="caption" text-anchor="middle" pointer-events="none" x="0" y="5" font-size="10px" fill="#2A2C34" font-family="Helvetica Neue, Helvetica, Arial, sans-serif"> 6037</text></g><g class="node" aria-label="graph-node208" transform="translate(653.99787110606,-42.26572995961537)"><circle class="b-outline" cx="0" cy="0" r="25" fill="#ECB5C9" stroke="#da7298" stroke-width="2px"/><text class="caption" text-anchor="middle" pointer-events="none" x="0" y="5" font-size="10px" fill="#2A2C34" font-family="Helvetica Neue, Helvetica, Arial, sans-serif"> 36445369</text></g><g class="node" aria-label="graph-node209" transform="translate(-141.28526709614607,-104.2939712476924)"><circle class="b-outline" cx="0" cy="0" r="25" fill="#F16667" stroke="#eb2728" stroke-width="2px"/><text class="caption" text-anchor="middle" pointer-events="none" x="0" y="5" font-size="10px" fill="#FFFFFF" font-family="Helvetica Neue, Helvetica, Arial, sans-serif"> 36481591</text></g><g class="node" aria-label="graph-node210" transform="translate(-304.5791264640902,223.61745076402588)"><circle class="b-outline" cx="0" cy="0" r="25" fill="#569480" stroke="#447666" stroke-width="2px"/><text class="caption" text-anchor="middle" pointer-events="none" x="0" y="5" font-size="10px" fill="#FFFFFF" font-family="Helvetica Neue, Helvetica, Arial, sans-serif"> 36517813</text></g><g class="node" aria-label="graph-node211" transform="translate(-367.3227969446808,-143.8856681551946)"><circle class="b-outline" cx="0" cy="0" r="25" fill="#F16667" stroke="#eb2728" stroke-width="2px"/><text class="caption" text-anchor="middle" pointer-events="none" x="0" y="5" font-size="10px" fill="#FFFFFF" font-family="Helvetica Neue, Helvetica, Arial, sans-serif"> 6043</text></g><g class="node" aria-label="graph-node212" transform="translate(-444.45023478305654,-273.6156819418695)"><circle class="b-outline" cx="0" cy="0" r="25" fill="#F16667" stroke="#eb2728" stroke-width="2px"/><text class="caption" text-anchor="middle" pointer-events="none" x="0" y="5" font-size="10px" fill="#FFFFFF" font-family="Helvetica Neue, Helvetica, Arial, sans-serif"> 36517849</text></g><g class="node" aria-label="graph-node213" transform="translate(-560.1830715712399,-21.005338937721657)"><circle class="b-outline" cx="0" cy="0" r="25" fill="#569480" stroke="#447666" stroke-width="2px"/><text class="caption" text-anchor="middle" pointer-events="none" x="0" y="5" font-size="10px" fill="#FFFFFF" font-family="Helvetica Neue, Helvetica, Arial, sans-serif"> 36554107</text></g><g class="node" aria-label="graph-node214" transform="translate(-544.5281249944021,240.04895528067374)"><circle class="b-outline" cx="0" cy="0" r="25" fill="#569480" stroke="#447666" stroke-width="2px"/><text class="caption" text-anchor="middle" pointer-events="none" x="0" y="5" font-size="10px" fill="#FFFFFF" font-family="Helvetica Neue, Helvetica, Arial, sans-serif"> 6049</text></g><g class="node" aria-label="graph-node215" transform="translate(-684.7957784447846,255.20875034191226)"><circle class="b-outline" cx="0" cy="0" r="25" fill="#569480" stroke="#447666" stroke-width="2px"/><text class="caption" text-anchor="middle" pointer-events="none" x="0" y="5" font-size="10px" fill="#FFFFFF" font-family="Helvetica Neue, Helvetica, Arial, sans-serif"> 36590401</text></g></g></svg>