<svg xmlns="http://www.w3.org/2000/svg" width="444.346435546875" height="388.48431396484375" viewBox="-197.17405700683594 -167.54434204101562 444.346435546875 388.48431396484375"><title>Neo4j Graph Visualization</title><desc>Created using Neo4j (http://www.neo4j.com/)</desc><g class="layer relationships"><g class="relationship" transform="translate(36.92291028377203 -1.7609771958420195) rotate(460.25933004077626)"><path class="b-outline" fill="#A5ABB6" stroke="none" d="M 6.953439040707552 24.018736134675446 L 17.306200844808384 62.65576918623819 A 17.916697508022974 17.916697508022974 0 1 1 -17.306200844808384 62.65576918623819 L -8.765172356425198 30.780216918698923 L -4.901469051268926 31.815493099109005 L -6.4704761275630185 24.148145657226706 L -11.662949835292403 30.00375978339136 L -7.79924653013613 31.039035963801442 L -16.340275018519314 62.91458823134071 A 16.916697508022974 16.916697508022974 0 1 0 16.340275018519314 62.91458823134071 L 5.987513214418485 24.277555179777966 Z"/><text text-anchor="middle" pointer-events="none" font-size="8px" fill="#000000" x="0" y="94.20964923467838" transform="rotate(180 0 91.20964923467838)" font-family="Helvetica Neue, Helvetica, Arial, sans-serif">FactoredBy</text></g><g class="relationship" transform="translate(97.94185993220992 138.86295402276647) rotate(246.54321487248222)"><path class="b-outline" fill="#A5ABB6" stroke="none" d="M 25 0.5 L 49.69281789258652 0.5 L 49.69281789258652 -0.5 L 25 -0.5 Z M 96.59906789258652 0.5 L 121.29188578517304 0.5 L 121.29188578517304 3.5 L 128.29188578517304 0 L 121.29188578517304 -3.5 L 121.29188578517304 -0.5 L 96.59906789258652 -0.5 Z"/><text text-anchor="middle" pointer-events="none" font-size="8px" fill="#000000" x="73.14594289258652" y="3" transform="rotate(180 73.14594289258652 0)" font-family="Helvetica Neue, Helvetica, Arial, sans-serif">FactoredBy</text></g><g class="relationship" transform="translate(132.0438595365973 42.17254784187835) rotate(204.79080456775705)"><path class="b-outline" fill="#A5ABB6" stroke="none" d="M 25 0.5 L 25.43520769201875 0.5 L 25.43520769201875 -0.5 L 25 -0.5 Z M 72.34145769201875 0.5 L 72.7766653840375 0.5 L 72.7766653840375 3.5 L 79.7766653840375 0 L 72.7766653840375 -3.5 L 72.7766653840375 -0.5 L 72.34145769201875 -0.5 Z"/><text text-anchor="middle" pointer-events="none" font-size="8px" fill="#000000" x="48.88833269201875" y="3" transform="rotate(180 48.88833269201875 0)" font-family="Helvetica Neue, Helvetica, Arial, sans-serif">FactoredBy</text></g><g class="relationship" transform="translate(190.5714950847122 -72.95479699327791) rotate(515.1391224376146)"><path class="b-outline" fill="#A5ABB6" stroke="none" d="M 25 0.5 L 57.71748322487558 0.5 L 57.71748322487558 -0.5 L 25 -0.5 Z M 104.62373322487558 0.5 L 137.34121644975116 0.5 L 137.34121644975116 3.5 L 144.34121644975116 0 L 137.34121644975116 -3.5 L 137.34121644975116 -0.5 L 104.62373322487558 -0.5 Z"/><text text-anchor="middle" pointer-events="none" font-size="8px" fill="#000000" x="81.17060822487558" y="3" transform="rotate(180 81.17060822487558 0)" font-family="Helvetica Neue, Helvetica, Arial, sans-serif">FactoredBy</text></g><g class="relationship" transform="translate(65.32711172530158 -125.04385413712458) rotate(462.9744529282205)"><path class="b-outline" fill="#A5ABB6" stroke="none" d="M 25 0.5 L 36.30323121510776 0.5 L 36.30323121510776 -0.5 L 25 -0.5 Z M 83.20948121510776 0.5 L 94.51271243021552 0.5 L 94.51271243021552 3.5 L 101.51271243021552 0 L 94.51271243021552 -3.5 L 94.51271243021552 -0.5 L 83.20948121510776 -0.5 Z"/><text text-anchor="middle" pointer-events="none" font-size="8px" fill="#000000" x="59.75635621510776" y="3" transform="rotate(180 59.75635621510776 0)" font-family="Helvetica Neue, Helvetica, Arial, sans-serif">FactoredBy</text></g><g class="relationship" transform="translate(155.00796170465358 -137.65775155673944) rotate(490.9884200459601)"><path class="b-outline" fill="#A5ABB6" stroke="none" d="M 25 0.5 L 63.063557691000256 0.5 L 63.063557691000256 -0.5 L 25 -0.5 Z M 109.96980769100026 0.5 L 148.0333653820005 0.5 L 148.0333653820005 3.5 L 155.0333653820005 0 L 148.0333653820005 -3.5 L 148.0333653820005 -0.5 L 109.96980769100026 -0.5 Z"/><text text-anchor="middle" pointer-events="none" font-size="8px" fill="#000000" x="86.51668269100026" y="3" transform="rotate(180 86.51668269100026 0)" font-family="Helvetica Neue, Helvetica, Arial, sans-serif">FactoredBy</text></g><g class="relationship" transform="translate(-0.2338113825607806 -122.4086669117269) rotate(432.88236776795077)"><path class="b-outline" fill="#A5ABB6" stroke="none" d="M 25 0.5 L 36.16677479152724 0.5 L 36.16677479152724 -0.5 L 25 -0.5 Z M 83.07302479152725 0.5 L 94.23979958305448 0.5 L 94.23979958305448 3.5 L 101.23979958305448 0 L 94.23979958305448 -3.5 L 94.23979958305448 -0.5 L 83.07302479152725 -0.5 Z"/><text text-anchor="middle" pointer-events="none" font-size="8px" fill="#000000" x="59.61989979152724" y="3" font-family="Helvetica Neue, Helvetica, Arial, sans-serif">FactoredBy</text></g><g class="relationship" transform="translate(218.17234695856774 -4.687205537689913) rotate(539.075053847632)"><path class="b-outline" fill="#A5ABB6" stroke="none" d="M 25 0.5 L 63.683403380172706 0.5 L 63.683403380172706 -0.5 L 25 -0.5 Z M 110.5896533801727 0.5 L 149.2730567603454 0.5 L 149.2730567603454 3.5 L 156.2730567603454 0 L 149.2730567603454 -3.5 L 149.2730567603454 -0.5 L 110.5896533801727 -0.5 Z"/><text text-anchor="middle" pointer-events="none" font-size="8px" fill="#000000" x="87.1365283801727" y="3" transform="rotate(180 87.1365283801727 0)" font-family="Helvetica Neue, Helvetica, Arial, sans-serif">FactoredBy</text></g><g class="relationship" transform="translate(-84.64332995337317 -138.54433540003004) rotate(408.37089916322816)"><path class="b-outline" fill="#A5ABB6" stroke="none" d="M 25 0.5 L 64.54556057390661 0.5 L 64.54556057390661 -0.5 L 25 -0.5 Z M 111.45181057390661 0.5 L 150.99737114781323 0.5 L 150.99737114781323 3.5 L 157.99737114781323 0 L 150.99737114781323 -3.5 L 150.99737114781323 -0.5 L 111.45181057390661 -0.5 Z"/><text text-anchor="middle" pointer-events="none" font-size="8px" fill="#000000" x="87.99868557390661" y="3" font-family="Helvetica Neue, Helvetica, Arial, sans-serif">FactoredBy</text></g><g class="relationship" transform="translate(-104.90935221496986 -71.70888030995859) rotate(386.25129053515843)"><path class="b-outline" fill="#A5ABB6" stroke="none" d="M 25 0.5 L 52.11820329852718 0.5 L 52.11820329852718 -0.5 L 25 -0.5 Z M 99.02445329852718 0.5 L 126.14265659705435 0.5 L 126.14265659705435 3.5 L 133.14265659705435 0 L 126.14265659705435 -3.5 L 126.14265659705435 -0.5 L 99.02445329852718 -0.5 Z"/><text text-anchor="middle" pointer-events="none" font-size="8px" fill="#000000" x="75.57132829852718" y="3" font-family="Helvetica Neue, Helvetica, Arial, sans-serif">FactoredBy</text></g><g class="relationship" transform="translate(-168.1740471803105 18.828395626255165) rotate(354.2673695463941)"><path class="b-outline" fill="#A5ABB6" stroke="none" d="M 25 0.5 L 76.11079234529477 0.5 L 76.11079234529477 -0.5 L 25 -0.5 Z M 123.01704234529477 0.5 L 174.12783469058954 0.5 L 174.12783469058954 3.5 L 181.12783469058954 0 L 174.12783469058954 -3.5 L 174.12783469058954 -0.5 L 123.01704234529477 -0.5 Z"/><text text-anchor="middle" pointer-events="none" font-size="8px" fill="#000000" x="99.56391734529477" y="3" font-family="Helvetica Neue, Helvetica, Arial, sans-serif">FactoredBy</text></g><g class="relationship" transform="translate(-73.92270188416751 38.038172946588105) rotate(340.249309150097)"><path class="b-outline" fill="#A5ABB6" stroke="none" d="M 25 0.5 L 31.933889886443694 0.5 L 31.933889886443694 -0.5 L 25 -0.5 Z M 78.8401398864437 0.5 L 85.77402977288739 0.5 L 85.77402977288739 3.5 L 92.77402977288739 0 L 85.77402977288739 -3.5 L 85.77402977288739 -0.5 L 78.8401398864437 -0.5 Z"/><text text-anchor="middle" pointer-events="none" font-size="8px" fill="#000000" x="55.387014886443694" y="3" font-family="Helvetica Neue, Helvetica, Arial, sans-serif">FactoredBy</text></g><g class="relationship" transform="translate(-80.65175529437147 136.4612711629809) rotate(310.38516705025955)"><path class="b-outline" fill="#A5ABB6" stroke="none" d="M 25 0.5 L 63.778886891036024 0.5 L 63.778886891036024 -0.5 L 25 -0.5 Z M 110.68513689103602 0.5 L 149.46402378207205 0.5 L 149.46402378207205 3.5 L 156.46402378207205 0 L 149.46402378207205 -3.5 L 149.46402378207205 -0.5 L 110.68513689103602 -0.5 Z"/><text text-anchor="middle" pointer-events="none" font-size="8px" fill="#000000" x="87.23201189103602" y="3" font-family="Helvetica Neue, Helvetica, Arial, sans-serif">FactoredBy</text></g><g class="relationship" transform="translate(14.139658589777934 191.9399607470875) rotate(276.70835060924196)"><path class="b-outline" fill="#A5ABB6" stroke="none" d="M 25 0.5 L 70.56498859655512 0.5 L 70.56498859655512 -0.5 L 25 -0.5 Z M 117.47123859655512 0.5 L 163.03622719311025 0.5 L 163.03622719311025 3.5 L 170.03622719311025 0 L 163.03622719311025 -3.5 L 163.03622719311025 -0.5 L 117.47123859655512 -0.5 Z"/><text text-anchor="middle" pointer-events="none" font-size="8px" fill="#000000" x="94.01811359655512" y="3" font-family="Helvetica Neue, Helvetica, Arial, sans-serif">FactoredBy</text></g><g class="relationship" transform="translate(8.4482568664493 95.71882845016378) rotate(286.283518119326)"><path class="b-outline" fill="#A5ABB6" stroke="none" d="M 25 0.5 L 26.71621551691436 0.5 L 26.71621551691436 -0.5 L 25 -0.5 Z M 67.83730926691436 0.5 L 69.55352478382872 0.5 L 69.55352478382872 3.5 L 76.55352478382872 0 L 69.55352478382872 -3.5 L 69.55352478382872 -0.5 L 67.83730926691436 -0.5 Z"/><text text-anchor="middle" pointer-events="none" font-size="8px" fill="#000000" x="47.27676239191436" y="3" font-family="Helvetica Neue, Helvetica, Arial, sans-serif">Factore…</text></g><g class="relationship" transform="translate(194.04917714242885 115.82157124976602) rotate(216.80866905509885)"><path class="b-outline" fill="#A5ABB6" stroke="none" d="M 25 0.5 L 71.17220230633512 0.5 L 71.17220230633512 -0.5 L 25 -0.5 Z M 118.07845230633512 0.5 L 164.25065461267025 0.5 L 164.25065461267025 3.5 L 171.25065461267025 0 L 164.25065461267025 -3.5 L 164.25065461267025 -0.5 L 118.07845230633512 -0.5 Z"/><text text-anchor="middle" pointer-events="none" font-size="8px" fill="#000000" x="94.62532730633512" y="3" transform="rotate(180 94.62532730633512 0)" font-family="Helvetica Neue, Helvetica, Arial, sans-serif">FactoredBy</text></g></g><g class="layer nodes"><g class="node" aria-label="graph-node85" transform="translate(97.94185993220992,138.86295402276647)"><circle class="b-outline" cx="0" cy="0" r="25" fill="#D9C8AE" stroke="#c0a378" stroke-width="2px"/><text class="caption" text-anchor="middle" pointer-events="none" x="0" y="5" font-size="10px" fill="#2A2C34" font-family="Helvetica Neue, Helvetica, Arial, sans-serif"> 91</text></g><g class="node" aria-label="graph-node95" transform="translate(218.17234695856774,-4.687205537689913)"><circle class="b-outline" cx="0" cy="0" r="25" fill="#DA7194" stroke="#cc3c6c" stroke-width="2px"/><text class="caption" text-anchor="middle" pointer-events="none" x="0" y="5" font-size="10px" fill="#FFFFFF" font-family="Helvetica Neue, Helvetica, Arial, sans-serif"> 637</text></g><g class="node" aria-label="graph-node99" transform="translate(36.92291028377203,-1.7609771958420195)"><circle class="b-outline" cx="0" cy="0" r="25" fill="#D9C8AE" stroke="#c0a378" stroke-width="2px"/><text class="caption" text-anchor="middle" pointer-events="none" x="0" y="5" font-size="10px" fill="#2A2C34" font-family="Helvetica Neue, Helvetica, Arial, sans-serif"> 13</text></g><g class="node" aria-label="graph-node100" transform="translate(132.0438595365973,42.17254784187835)"><circle class="b-outline" cx="0" cy="0" r="25" fill="#D9C8AE" stroke="#c0a378" stroke-width="2px"/><text class="caption" text-anchor="middle" pointer-events="none" x="0" y="5" font-size="10px" fill="#2A2C34" font-family="Helvetica Neue, Helvetica, Arial, sans-serif"> 169</text></g><g class="node" aria-label="graph-node101" transform="translate(190.5714950847122,-72.95479699327791)"><circle class="b-outline" cx="0" cy="0" r="25" fill="#8DCC93" stroke="#5db665" stroke-width="2px"/><text class="caption" text-anchor="middle" pointer-events="none" x="0" y="5" font-size="10px" fill="#2A2C34" font-family="Helvetica Neue, Helvetica, Arial, sans-serif"> 247</text></g><g class="node" aria-label="graph-node102" transform="translate(65.32711172530158,-125.04385413712458)"><circle class="b-outline" cx="0" cy="0" r="25" fill="#ECB5C9" stroke="#da7298" stroke-width="2px"/><text class="caption" text-anchor="middle" pointer-events="none" x="0" y="5" font-size="10px" fill="#2A2C34" font-family="Helvetica Neue, Helvetica, Arial, sans-serif"> 403</text></g><g class="node" aria-label="graph-node103" transform="translate(155.00796170465358,-137.65775155673944)"><circle class="b-outline" cx="0" cy="0" r="25" fill="#4C8EDA" stroke="#2870c2" stroke-width="2px"/><text class="caption" text-anchor="middle" pointer-events="none" x="0" y="5" font-size="10px" fill="#FFFFFF" font-family="Helvetica Neue, Helvetica, Arial, sans-serif"> 481</text></g><g class="node" aria-label="graph-node104" transform="translate(-0.2338113825607806,-122.4086669117269)"><circle class="b-outline" cx="0" cy="0" r="25" fill="#FFC454" stroke="#d7a013" stroke-width="2px"/><text class="caption" text-anchor="middle" pointer-events="none" x="0" y="5" font-size="10px" fill="#2A2C34" font-family="Helvetica Neue, Helvetica, Arial, sans-serif"> 559</text></g><g class="node" aria-label="graph-node105" transform="translate(-84.64332995337317,-138.54433540003004)"><circle class="b-outline" cx="0" cy="0" r="25" fill="#D9C8AE" stroke="#c0a378" stroke-width="2px"/><text class="caption" text-anchor="middle" pointer-events="none" x="0" y="5" font-size="10px" fill="#2A2C34" font-family="Helvetica Neue, Helvetica, Arial, sans-serif"> 793</text></g><g class="node" aria-label="graph-node106" transform="translate(-104.90935221496986,-71.70888030995859)"><circle class="b-outline" cx="0" cy="0" r="25" fill="#D9C8AE" stroke="#c0a378" stroke-width="2px"/><text class="caption" text-anchor="middle" pointer-events="none" x="0" y="5" font-size="10px" fill="#2A2C34" font-family="Helvetica Neue, Helvetica, Arial, sans-serif"> 871</text></g><g class="node" aria-label="graph-node107" transform="translate(-168.1740471803105,18.828395626255165)"><circle class="b-outline" cx="0" cy="0" r="25" fill="#D9C8AE" stroke="#c0a378" stroke-width="2px"/><text class="caption" text-anchor="middle" pointer-events="none" x="0" y="5" font-size="10px" fill="#2A2C34" font-family="Helvetica Neue, Helvetica, Arial, sans-serif"> 949</text></g><g class="node" aria-label="graph-node108" transform="translate(-73.92270188416751,38.038172946588105)"><circle class="b-outline" cx="0" cy="0" r="25" fill="#D9C8AE" stroke="#c0a378" stroke-width="2px"/><text class="caption" text-anchor="middle" pointer-events="none" x="0" y="5" font-size="10px" fill="#2A2C34" font-family="Helvetica Neue, Helvetica, Arial, sans-serif"> 1027</text></g><g class="node" aria-label="graph-node109" transform="translate(-80.65175529437147,136.4612711629809)"><circle class="b-outline" cx="0" cy="0" r="25" fill="#D9C8AE" stroke="#c0a378" stroke-width="2px"/><text class="caption" text-anchor="middle" pointer-events="none" x="0" y="5" font-size="10px" fill="#2A2C34" font-family="Helvetica Neue, Helvetica, Arial, sans-serif"> 1183</text></g><g class="node" aria-label="graph-node110" transform="translate(14.139658589777934,191.9399607470875)"><circle class="b-outline" cx="0" cy="0" r="25" fill="#D9C8AE" stroke="#c0a378" stroke-width="2px"/><text class="caption" text-anchor="middle" pointer-events="none" x="0" y="5" font-size="10px" fill="#2A2C34" font-family="Helvetica Neue, Helvetica, Arial, sans-serif"> 1261</text></g><g class="node" aria-label="graph-node111" transform="translate(8.4482568664493,95.71882845016378)"><circle class="b-outline" cx="0" cy="0" r="25" fill="#D9C8AE" stroke="#c0a378" stroke-width="2px"/><text class="caption" text-anchor="middle" pointer-events="none" x="0" y="5" font-size="10px" fill="#2A2C34" font-family="Helvetica Neue, Helvetica, Arial, sans-serif"> 1339</text></g><g class="node" aria-label="graph-node112" transform="translate(194.04917714242885,115.82157124976602)"><circle class="b-outline" cx="0" cy="0" r="25" fill="#D9C8AE" stroke="#c0a378" stroke-width="2px"/><text class="caption" text-anchor="middle" pointer-events="none" x="0" y="5" font-size="10px" fill="#2A2C34" font-family="Helvetica Neue, Helvetica, Arial, sans-serif"> 1417</text></g></g></svg>