<svg xmlns="http://www.w3.org/2000/svg" width="1285.851806640625" height="488.91943359375" viewBox="-935.0737915039062 -243.09024047851562 1285.851806640625 488.91943359375"><title>Neo4j Graph Visualization</title><desc>Created using Neo4j (http://www.neo4j.com/)</desc><g class="layer relationships"><g class="relationship" transform="translate(9.43414786369641 -38.39035879012742) rotate(446.2887068375984)"><path class="b-outline" fill="#A5ABB6" stroke="none" d="M 6.953439040707552 24.018736134675446 L 17.306200844808384 62.65576918623819 A 17.916697508022974 17.916697508022974 0 1 1 -17.306200844808384 62.65576918623819 L -8.765172356425198 30.780216918698923 L -4.901469051268926 31.815493099109005 L -6.4704761275630185 24.148145657226706 L -11.662949835292403 30.00375978339136 L -7.79924653013613 31.039035963801442 L -16.340275018519314 62.91458823134071 A 16.916697508022974 16.916697508022974 0 1 0 16.340275018519314 62.91458823134071 L 5.987513214418485 24.277555179777966 Z"/><text text-anchor="middle" pointer-events="none" font-size="8px" fill="#000000" x="0" y="94.20964923467838" font-family="Helvetica Neue, Helvetica, Arial, sans-serif">FactoredBy</text></g><g class="relationship" transform="translate(-573.4744153700464 12.172051960629425) rotate(414.43513752940726)"><path class="b-outline" fill="#A5ABB6" stroke="none" d="M 6.953439040707552 24.018736134675446 L 17.306200844808384 62.65576918623819 A 17.916697508022974 17.916697508022974 0 1 1 -17.306200844808384 62.65576918623819 L -8.765172356425198 30.780216918698923 L -4.901469051268926 31.815493099109005 L -6.4704761275630185 24.148145657226706 L -11.662949835292403 30.00375978339136 L -7.79924653013613 31.039035963801442 L -16.340275018519314 62.91458823134071 A 16.916697508022974 16.916697508022974 0 1 0 16.340275018519314 62.91458823134071 L 5.987513214418485 24.277555179777966 Z"/><text text-anchor="middle" pointer-events="none" font-size="8px" fill="#000000" x="0" y="94.20964923467838" font-family="Helvetica Neue, Helvetica, Arial, sans-serif">FactoredBy</text></g><g class="relationship" transform="translate(-837.7200697412145 -14.060988313516589) rotate(457.5588701068795)"><path class="b-outline" fill="#A5ABB6" stroke="none" d="M 6.953439040707552 24.018736134675446 L 17.306200844808384 62.65576918623819 A 17.916697508022974 17.916697508022974 0 1 1 -17.306200844808384 62.65576918623819 L -8.765172356425198 30.780216918698923 L -4.901469051268926 31.815493099109005 L -6.4704761275630185 24.148145657226706 L -11.662949835292403 30.00375978339136 L -7.79924653013613 31.039035963801442 L -16.340275018519314 62.91458823134071 A 16.916697508022974 16.916697508022974 0 1 0 16.340275018519314 62.91458823134071 L 5.987513214418485 24.277555179777966 Z"/><text text-anchor="middle" pointer-events="none" font-size="8px" fill="#000000" x="0" y="94.20964923467838" transform="rotate(180 0 91.20964923467838)" font-family="Helvetica Neue, Helvetica, Arial, sans-serif">FactoredBy</text></g><g class="relationship" transform="translate(-837.7200697412145 -14.060988313516589) rotate(365.66947339959296)"><path class="b-outline" fill="#A5ABB6" stroke="none" d="M 25 0.5 L 105.81917845225601 0.5 L 105.81917845225601 -0.5 L 25 -0.5 Z M 152.725428452256 0.5 L 233.54460690451202 0.5 L 233.54460690451202 3.5 L 240.54460690451202 0 L 233.54460690451202 -3.5 L 233.54460690451202 -0.5 L 152.725428452256 -0.5 Z"/><text text-anchor="middle" pointer-events="none" font-size="8px" fill="#000000" x="129.272303452256" y="3" font-family="Helvetica Neue, Helvetica, Arial, sans-serif">FactoredBy</text></g><g class="relationship" transform="translate(-420.1478238949693 109.1026074394513) rotate(212.30040260784125)"><path class="b-outline" fill="#A5ABB6" stroke="none" d="M 25 0.5 L 63.74496792206499 0.5 L 63.74496792206499 -0.5 L 25 -0.5 Z M 110.65121792206499 0.5 L 149.39618584412997 0.5 L 149.39618584412997 3.5 L 156.39618584412997 0 L 149.39618584412997 -3.5 L 149.39618584412997 -0.5 L 110.65121792206499 -0.5 Z"/><text text-anchor="middle" pointer-events="none" font-size="8px" fill="#000000" x="87.19809292206499" y="3" transform="rotate(180 87.19809292206499 0)" font-family="Helvetica Neue, Helvetica, Arial, sans-serif">FactoredBy</text></g><g class="relationship" transform="translate(-465.1442515512519 21.11823749483006) rotate(184.72092128735085)"><path class="b-outline" fill="#A5ABB6" stroke="none" d="M 25 0.5 L 27.396342864504398 0.5 L 27.396342864504398 -0.5 L 25 -0.5 Z M 74.30259286450439 0.5 L 76.6989357290088 0.5 L 76.6989357290088 3.5 L 83.6989357290088 0 L 76.6989357290088 -3.5 L 76.6989357290088 -0.5 L 74.30259286450439 -0.5 Z"/><text text-anchor="middle" pointer-events="none" font-size="8px" fill="#000000" x="50.8494678645044" y="3" transform="rotate(180 50.8494678645044 0)" font-family="Helvetica Neue, Helvetica, Arial, sans-serif">FactoredBy</text></g><g class="relationship" transform="translate(-413.18046116101283 -63.13222164582613) rotate(514.8363967297819)"><path class="b-outline" fill="#A5ABB6" stroke="none" d="M 25 0.5 L 61.59754605810613 0.5 L 61.59754605810613 -0.5 L 25 -0.5 Z M 108.50379605810613 0.5 L 145.10134211621227 0.5 L 145.10134211621227 3.5 L 152.10134211621227 0 L 145.10134211621227 -3.5 L 145.10134211621227 -0.5 L 108.50379605810613 -0.5 Z"/><text text-anchor="middle" pointer-events="none" font-size="8px" fill="#000000" x="85.05067105810613" y="3" transform="rotate(180 85.05067105810613 0)" font-family="Helvetica Neue, Helvetica, Arial, sans-serif">FactoredBy</text></g><g class="relationship" transform="translate(-511.00846624551247 -72.30917168807835) rotate(486.4794547700735)"><path class="b-outline" fill="#A5ABB6" stroke="none" d="M 25 0.5 L 25.580368956741154 0.5 L 25.580368956741154 -0.5 L 25 -0.5 Z M 72.48661895674115 0.5 L 73.06698791348231 0.5 L 73.06698791348231 3.5 L 80.06698791348231 0 L 73.06698791348231 -3.5 L 73.06698791348231 -0.5 L 72.48661895674115 -0.5 Z"/><text text-anchor="middle" pointer-events="none" font-size="8px" fill="#000000" x="49.033493956741154" y="3" transform="rotate(180 49.033493956741154 0)" font-family="Helvetica Neue, Helvetica, Arial, sans-serif">FactoredBy</text></g><g class="relationship" transform="translate(-368.9987059816773 24.437444581181754) rotate(183.43275088781905)"><path class="b-outline" fill="#A5ABB6" stroke="none" d="M 25 0.5 L 75.46849818818846 0.5 L 75.46849818818846 -0.5 L 25 -0.5 Z M 122.37474818818846 0.5 L 172.84324637637692 0.5 L 172.84324637637692 3.5 L 179.84324637637692 0 L 172.84324637637692 -3.5 L 172.84324637637692 -0.5 L 122.37474818818846 -0.5 Z"/><text text-anchor="middle" pointer-events="none" font-size="8px" fill="#000000" x="98.92162318818846" y="3" transform="rotate(180 98.92162318818846 0)" font-family="Helvetica Neue, Helvetica, Arial, sans-serif">FactoredBy</text></g><g class="relationship" transform="translate(-709.0870651572319 -48.16919056318027) rotate(525.1492596118769)"><path class="b-outline" fill="#A5ABB6" stroke="none" d="M 25 0.5 L 39.5859975689948 0.5 L 39.5859975689948 -0.5 L 25 -0.5 Z M 86.4922475689948 0.5 L 101.0782451379896 0.5 L 101.0782451379896 3.5 L 108.0782451379896 0 L 101.0782451379896 -3.5 L 101.0782451379896 -0.5 L 86.4922475689948 -0.5 Z"/><text text-anchor="middle" pointer-events="none" font-size="8px" fill="#000000" x="63.0391225689948" y="3" transform="rotate(180 63.0391225689948 0)" font-family="Helvetica Neue, Helvetica, Arial, sans-serif">FactoredBy</text></g><g class="relationship" transform="translate(-709.0870651572319 -48.16919056318027) rotate(383.9868116588957)"><path class="b-outline" fill="#A5ABB6" stroke="none" d="M 25 0.5 L 47.262534283636114 0.5 L 47.262534283636114 -0.5 L 25 -0.5 Z M 94.16878428363611 0.5 L 116.43131856727223 0.5 L 116.43131856727223 3.5 L 123.43131856727223 0 L 116.43131856727223 -3.5 L 116.43131856727223 -0.5 L 94.16878428363611 -0.5 Z"/><text text-anchor="middle" pointer-events="none" font-size="8px" fill="#000000" x="70.71565928363611" y="3" font-family="Helvetica Neue, Helvetica, Arial, sans-serif">FactoredBy</text></g><g class="relationship" transform="translate(-554.8860059990396 -160.95638904851677) rotate(456.12824184439324)"><path class="b-outline" fill="#A5ABB6" stroke="none" d="M 25 0.5 L 60.10861465813218 0.5 L 60.10861465813218 -0.5 L 25 -0.5 Z M 107.01486465813218 0.5 L 142.12347931626437 0.5 L 142.12347931626437 3.5 L 149.12347931626437 0 L 142.12347931626437 -3.5 L 142.12347931626437 -0.5 L 107.01486465813218 -0.5 Z"/><text text-anchor="middle" pointer-events="none" font-size="8px" fill="#000000" x="83.56173965813218" y="3" transform="rotate(180 83.56173965813218 0)" font-family="Helvetica Neue, Helvetica, Arial, sans-serif">FactoredBy</text></g><g class="relationship" transform="translate(-457.03402380700294 -152.13103217024087) rotate(485.3249209399394)"><path class="b-outline" fill="#A5ABB6" stroke="none" d="M 25 0.5 L 73.73683011255171 0.5 L 73.73683011255171 -0.5 L 25 -0.5 Z M 120.64308011255171 0.5 L 169.37991022510343 0.5 L 169.37991022510343 3.5 L 176.37991022510343 0 L 169.37991022510343 -3.5 L 169.37991022510343 -0.5 L 120.64308011255171 -0.5 Z"/><text text-anchor="middle" pointer-events="none" font-size="8px" fill="#000000" x="97.18995511255171" y="3" transform="rotate(180 97.18995511255171 0)" font-family="Helvetica Neue, Helvetica, Arial, sans-serif">FactoredBy</text></g><g class="relationship" transform="translate(-647.38714859905 -125.76525501239863) rotate(421.815682245537)"><path class="b-outline" fill="#A5ABB6" stroke="none" d="M 25 0.5 L 51.29294964332193 0.5 L 51.29294964332193 -0.5 L 25 -0.5 Z M 98.19919964332193 0.5 L 124.49214928664387 0.5 L 124.49214928664387 3.5 L 131.49214928664387 0 L 124.49214928664387 -3.5 L 124.49214928664387 -0.5 L 98.19919964332193 -0.5 Z"/><text text-anchor="middle" pointer-events="none" font-size="8px" fill="#000000" x="74.74607464332193" y="3" font-family="Helvetica Neue, Helvetica, Arial, sans-serif">FactoredBy</text></g><g class="relationship" transform="translate(-662.3345368551825 137.2795233201887) rotate(305.38504716800475)"><path class="b-outline" fill="#A5ABB6" stroke="none" d="M 25 0.5 L 49.77366396633185 0.5 L 49.77366396633185 -0.5 L 25 -0.5 Z M 96.67991396633185 0.5 L 121.4535779326637 0.5 L 121.4535779326637 3.5 L 128.4535779326637 0 L 121.4535779326637 -3.5 L 121.4535779326637 -0.5 L 96.67991396633185 -0.5 Z"/><text text-anchor="middle" pointer-events="none" font-size="8px" fill="#000000" x="73.22678896633185" y="3" font-family="Helvetica Neue, Helvetica, Arial, sans-serif">FactoredBy</text></g><g class="relationship" transform="translate(-717.9411594931535 55.005569050880986) rotate(209.9684806018821)"><path class="b-outline" fill="#A5ABB6" stroke="none" d="M 25 0.5 L 42.17931435805875 0.5 L 42.17931435805875 -0.5 L 25 -0.5 Z M 89.08556435805875 0.5 L 106.2648787161175 0.5 L 106.2648787161175 3.5 L 113.2648787161175 0 L 106.2648787161175 -3.5 L 106.2648787161175 -0.5 L 89.08556435805875 -0.5 Z"/><text text-anchor="middle" pointer-events="none" font-size="8px" fill="#000000" x="65.63243935805875" y="3" transform="rotate(180 65.63243935805875 0)" font-family="Helvetica Neue, Helvetica, Arial, sans-serif">FactoredBy</text></g><g class="relationship" transform="translate(-717.9411594931535 55.005569050880986) rotate(343.4852278908097)"><path class="b-outline" fill="#A5ABB6" stroke="none" d="M 25 0.5 L 48.38834821338391 0.5 L 48.38834821338391 -0.5 L 25 -0.5 Z M 95.2945982133839 0.5 L 118.68294642676781 0.5 L 118.68294642676781 3.5 L 125.68294642676781 0 L 118.68294642676781 -3.5 L 118.68294642676781 -0.5 L 95.2945982133839 -0.5 Z"/><text text-anchor="middle" pointer-events="none" font-size="8px" fill="#000000" x="71.8414732133839" y="3" font-family="Helvetica Neue, Helvetica, Arial, sans-serif">FactoredBy</text></g><g class="relationship" transform="translate(-575.8457863622295 185.11718467909282) rotate(270.78557305062714)"><path class="b-outline" fill="#A5ABB6" stroke="none" d="M 25 0.5 L 59.52756985640926 0.5 L 59.52756985640926 -0.5 L 25 -0.5 Z M 106.43381985640926 0.5 L 140.96138971281852 0.5 L 140.96138971281852 3.5 L 147.96138971281852 0 L 140.96138971281852 -3.5 L 140.96138971281852 -0.5 L 106.43381985640926 -0.5 Z"/><text text-anchor="middle" pointer-events="none" font-size="8px" fill="#000000" x="82.98069485640926" y="3" font-family="Helvetica Neue, Helvetica, Arial, sans-serif">FactoredBy</text></g><g class="relationship" transform="translate(-518.3542832007439 104.4010695214309) rotate(239.13559711488318)"><path class="b-outline" fill="#A5ABB6" stroke="none" d="M 25 0.5 L 26.76935784143241 0.5 L 26.76935784143241 -0.5 L 25 -0.5 Z M 73.67560784143241 0.5 L 75.44496568286482 0.5 L 75.44496568286482 3.5 L 82.44496568286482 0 L 75.44496568286482 -3.5 L 75.44496568286482 -0.5 L 73.67560784143241 -0.5 Z"/><text text-anchor="middle" pointer-events="none" font-size="8px" fill="#000000" x="50.22248284143241" y="3" transform="rotate(180 50.22248284143241 0)" font-family="Helvetica Neue, Helvetica, Arial, sans-serif">FactoredBy</text></g><g class="relationship" transform="translate(-476.37459589358986 190.7059503479811) rotate(241.4594114613035)"><path class="b-outline" fill="#A5ABB6" stroke="none" d="M 25 0.5 L 74.6622377850455 0.5 L 74.6622377850455 -0.5 L 25 -0.5 Z M 121.5684877850455 0.5 L 171.230725570091 0.5 L 171.230725570091 3.5 L 178.230725570091 0 L 171.230725570091 -3.5 L 171.230725570091 -0.5 L 121.5684877850455 -0.5 Z"/><text text-anchor="middle" pointer-events="none" font-size="8px" fill="#000000" x="98.1153627850455" y="3" transform="rotate(180 98.1153627850455 0)" font-family="Helvetica Neue, Helvetica, Arial, sans-serif">FactoredBy</text></g><g class="relationship" transform="translate(183.87825293319048 145.71084823082955) rotate(346.4536499879756)"><path class="b-outline" fill="#A5ABB6" stroke="none" d="M 6.953439040707552 24.018736134675446 L 17.306200844808384 62.65576918623819 A 17.916697508022974 17.916697508022974 0 1 1 -17.306200844808384 62.65576918623819 L -8.765172356425198 30.780216918698923 L -4.901469051268926 31.815493099109005 L -6.4704761275630185 24.148145657226706 L -11.662949835292403 30.00375978339136 L -7.79924653013613 31.039035963801442 L -16.340275018519314 62.91458823134071 A 16.916697508022974 16.916697508022974 0 1 0 16.340275018519314 62.91458823134071 L 5.987513214418485 24.277555179777966 Z"/><text text-anchor="middle" pointer-events="none" font-size="8px" fill="#000000" x="0" y="94.20964923467838" font-family="Helvetica Neue, Helvetica, Arial, sans-serif">FactoredBy</text></g><g class="relationship" transform="translate(183.87825293319048 145.71084823082955) rotate(226.5428383092334)"><path class="b-outline" fill="#A5ABB6" stroke="none" d="M 25 0.5 L 99.85775803066691 0.5 L 99.85775803066691 -0.5 L 25 -0.5 Z M 146.7640080306669 0.5 L 221.62176606133383 0.5 L 221.62176606133383 3.5 L 228.62176606133383 0 L 221.62176606133383 -3.5 L 221.62176606133383 -0.5 L 146.7640080306669 -0.5 Z"/><text text-anchor="middle" pointer-events="none" font-size="8px" fill="#000000" x="123.31088303066691" y="3" transform="rotate(180 123.31088303066691 0)" font-family="Helvetica Neue, Helvetica, Arial, sans-serif">FactoredBy</text></g><g class="relationship" transform="translate(272.4056154184381 99.22261611910741) rotate(323.2005768059378)"><path class="b-outline" fill="#A5ABB6" stroke="none" d="M 6.953439040707552 24.018736134675446 L 17.306200844808384 62.65576918623819 A 17.916697508022974 17.916697508022974 0 1 1 -17.306200844808384 62.65576918623819 L -8.765172356425198 30.780216918698923 L -4.901469051268926 31.815493099109005 L -6.4704761275630185 24.148145657226706 L -11.662949835292403 30.00375978339136 L -7.79924653013613 31.039035963801442 L -16.340275018519314 62.91458823134071 A 16.916697508022974 16.916697508022974 0 1 0 16.340275018519314 62.91458823134071 L 5.987513214418485 24.277555179777966 Z"/><text text-anchor="middle" pointer-events="none" font-size="8px" fill="#000000" x="0" y="94.20964923467838" font-family="Helvetica Neue, Helvetica, Arial, sans-serif">FactoredBy</text></g><g class="relationship" transform="translate(272.4056154184381 99.22261611910741) rotate(207.6230634650766)"><path class="b-outline" fill="#A5ABB6" stroke="none" d="M 25 0.5 L 121.44778774253021 0.5 L 121.44778774253021 -0.5 L 25 -0.5 Z M 168.3540377425302 0.5 L 264.8018254850604 0.5 L 264.8018254850604 3.5 L 271.8018254850604 0 L 264.8018254850604 -3.5 L 264.8018254850604 -0.5 L 168.3540377425302 -0.5 Z"/><text text-anchor="middle" pointer-events="none" font-size="8px" fill="#000000" x="144.9009127425302" y="3" transform="rotate(180 144.9009127425302 0)" font-family="Helvetica Neue, Helvetica, Arial, sans-serif">FactoredBy</text></g><g class="relationship" transform="translate(-64.00967843950866 100.28130209276695) rotate(297.9067639587992)"><path class="b-outline" fill="#A5ABB6" stroke="none" d="M 25 0.5 L 51.50677742486256 0.5 L 51.50677742486256 -0.5 L 25 -0.5 Z M 98.41302742486256 0.5 L 124.91980484972512 0.5 L 124.91980484972512 3.5 L 131.91980484972512 0 L 124.91980484972512 -3.5 L 124.91980484972512 -0.5 L 98.41302742486256 -0.5 Z"/><text text-anchor="middle" pointer-events="none" font-size="8px" fill="#000000" x="74.95990242486256" y="3" font-family="Helvetica Neue, Helvetica, Arial, sans-serif">FactoredBy</text></g><g class="relationship" transform="translate(28.530491635946323 134.13085658016038) rotate(263.6836526985135)"><path class="b-outline" fill="#A5ABB6" stroke="none" d="M 25 0.5 L 59.8343166294045 0.5 L 59.8343166294045 -0.5 L 25 -0.5 Z M 106.7405666294045 0.5 L 141.574883258809 0.5 L 141.574883258809 3.5 L 148.574883258809 0 L 141.574883258809 -3.5 L 141.574883258809 -0.5 L 106.7405666294045 -0.5 Z"/><text text-anchor="middle" pointer-events="none" font-size="8px" fill="#000000" x="83.2874416294045" y="3" transform="rotate(180 83.2874416294045 0)" font-family="Helvetica Neue, Helvetica, Arial, sans-serif">FactoredBy</text></g><g class="relationship" transform="translate(106.69343999871917 74.13117034392052) rotate(229.16112297404476)"><path class="b-outline" fill="#A5ABB6" stroke="none" d="M 25 0.5 L 47.41162542866428 0.5 L 47.41162542866428 -0.5 L 25 -0.5 Z M 94.31787542866428 0.5 L 116.72950085732856 0.5 L 116.72950085732856 3.5 L 123.72950085732856 0 L 116.72950085732856 -3.5 L 116.72950085732856 -0.5 L 94.31787542866428 -0.5 Z"/><text text-anchor="middle" pointer-events="none" font-size="8px" fill="#000000" x="70.86475042866428" y="3" transform="rotate(180 70.86475042866428 0)" font-family="Helvetica Neue, Helvetica, Arial, sans-serif">FactoredBy</text></g><g class="relationship" transform="translate(142.95030432275723 -46.95446859646544) rotate(536.3299118980412)"><path class="b-outline" fill="#A5ABB6" stroke="none" d="M 25 0.5 L 39.942143914130654 0.5 L 39.942143914130654 -0.5 L 25 -0.5 Z M 86.84839391413065 0.5 L 101.79053782826131 0.5 L 101.79053782826131 3.5 L 108.79053782826131 0 L 101.79053782826131 -3.5 L 101.79053782826131 -0.5 L 86.84839391413065 -0.5 Z"/><text text-anchor="middle" pointer-events="none" font-size="8px" fill="#000000" x="63.395268914130654" y="3" transform="rotate(180 63.395268914130654 0)" font-family="Helvetica Neue, Helvetica, Arial, sans-serif">FactoredBy</text></g><g class="relationship" transform="translate(197.6755885462988 34.81890447955198) rotate(457.09237511337255)"><path class="b-outline" fill="#A5ABB6" stroke="none" d="M 25 0.5 L 28.920369742492298 0.5 L 28.920369742492298 -0.5 L 25 -0.5 Z M 75.8266197424923 0.5 L 79.7469894849846 0.5 L 79.7469894849846 3.5 L 86.7469894849846 0 L 79.7469894849846 -3.5 L 79.7469894849846 -0.5 L 75.8266197424923 -0.5 Z"/><text text-anchor="middle" pointer-events="none" font-size="8px" fill="#000000" x="52.3734947424923" y="3" transform="rotate(180 52.3734947424923 0)" font-family="Helvetica Neue, Helvetica, Arial, sans-serif">FactoredBy</text></g><g class="relationship" transform="translate(197.6755885462988 34.81890447955198) rotate(201.25163141538428)"><path class="b-outline" fill="#A5ABB6" stroke="none" d="M 25 0.5 L 74.0350379434249 0.5 L 74.0350379434249 -0.5 L 25 -0.5 Z M 120.9412879434249 0.5 L 169.9763258868498 0.5 L 169.9763258868498 3.5 L 176.9763258868498 0 L 169.9763258868498 -3.5 L 169.9763258868498 -0.5 L 120.9412879434249 -0.5 Z"/><text text-anchor="middle" pointer-events="none" font-size="8px" fill="#000000" x="97.4881629434249" y="3" transform="rotate(180 97.4881629434249 0)" font-family="Helvetica Neue, Helvetica, Arial, sans-serif">FactoredBy</text></g><g class="relationship" transform="translate(77.75093675665211 -122.29358501690058) rotate(489.1536234218049)"><path class="b-outline" fill="#A5ABB6" stroke="none" d="M 25 0.5 L 27.146170318667856 0.5 L 27.146170318667856 -0.5 L 25 -0.5 Z M 74.05242031866786 0.5 L 76.19859063733571 0.5 L 76.19859063733571 3.5 L 83.19859063733571 0 L 76.19859063733571 -3.5 L 76.19859063733571 -0.5 L 74.05242031866786 -0.5 Z"/><text text-anchor="middle" pointer-events="none" font-size="8px" fill="#000000" x="50.599295318667856" y="3" transform="rotate(180 50.599295318667856 0)" font-family="Helvetica Neue, Helvetica, Arial, sans-serif">FactoredBy</text></g><g class="relationship" transform="translate(173.78713017752992 -139.8677637626608) rotate(508.30733545947567)"><path class="b-outline" fill="#A5ABB6" stroke="none" d="M 25 0.5 L 69.62529717003083 0.5 L 69.62529717003083 -0.5 L 25 -0.5 Z M 116.53154717003083 0.5 L 161.15684434006167 0.5 L 161.15684434006167 3.5 L 168.15684434006167 0 L 161.15684434006167 -3.5 L 161.15684434006167 -0.5 L 116.53154717003083 -0.5 Z"/><text text-anchor="middle" pointer-events="none" font-size="8px" fill="#000000" x="93.07842217003083" y="3" transform="rotate(180 93.07842217003083 0)" font-family="Helvetica Neue, Helvetica, Arial, sans-serif">FactoredBy</text></g><g class="relationship" transform="translate(109.08999378436738 -214.09023448748727) rotate(479.5616300933289)"><path class="b-outline" fill="#A5ABB6" stroke="none" d="M 25 0.5 L 74.04407043907175 0.5 L 74.04407043907175 -0.5 L 25 -0.5 Z M 120.95032043907175 0.5 L 169.9943908781435 0.5 L 169.9943908781435 3.5 L 176.9943908781435 0 L 169.9943908781435 -3.5 L 169.9943908781435 -0.5 L 120.95032043907175 -0.5 Z"/><text text-anchor="middle" pointer-events="none" font-size="8px" fill="#000000" x="97.49719543907175" y="3" transform="rotate(180 97.49719543907175 0)" font-family="Helvetica Neue, Helvetica, Arial, sans-serif">FactoredBy</text></g><g class="relationship" transform="translate(-81.900023778355 -167.0437708683973) rotate(414.62813541912493)"><path class="b-outline" fill="#A5ABB6" stroke="none" d="M 25 0.5 L 51.93545362346238 0.5 L 51.93545362346238 -0.5 L 25 -0.5 Z M 98.84170362346238 0.5 L 125.77715724692476 0.5 L 125.77715724692476 3.5 L 132.77715724692476 0 L 125.77715724692476 -3.5 L 125.77715724692476 -0.5 L 98.84170362346238 -0.5 Z"/><text text-anchor="middle" pointer-events="none" font-size="8px" fill="#000000" x="75.38857862346238" y="3" font-family="Helvetica Neue, Helvetica, Arial, sans-serif">FactoredBy</text></g><g class="relationship" transform="translate(242.21386711114815 -52.95142261260993) rotate(438.7780901467991)"><path class="b-outline" fill="#A5ABB6" stroke="none" d="M 25 0.5 L 50.6169718959253 0.5 L 50.6169718959253 -0.5 L 25 -0.5 Z M 97.5232218959253 0.5 L 123.1401937918506 0.5 L 123.1401937918506 3.5 L 130.1401937918506 0 L 123.1401937918506 -3.5 L 123.1401937918506 -0.5 L 97.5232218959253 -0.5 Z"/><text text-anchor="middle" pointer-events="none" font-size="8px" fill="#000000" x="74.0700968959253" y="3" font-family="Helvetica Neue, Helvetica, Arial, sans-serif">FactoredBy</text></g><g class="relationship" transform="translate(242.21386711114815 -52.95142261260993) rotate(466.36446166671783)"><path class="b-outline" fill="#A5ABB6" stroke="none" d="M 25 0.5 L 76.57192237766563 0.5 L 76.57192237766563 -0.5 L 25 -0.5 Z M 123.47817237766563 0.5 L 175.05009475533126 0.5 L 175.05009475533126 3.5 L 182.05009475533126 0 L 175.05009475533126 -3.5 L 175.05009475533126 -0.5 L 123.47817237766563 -0.5 Z"/><text text-anchor="middle" pointer-events="none" font-size="8px" fill="#000000" x="100.02504737766563" y="3" transform="rotate(180 100.02504737766563 0)" font-family="Helvetica Neue, Helvetica, Arial, sans-serif">FactoredBy</text></g><g class="relationship" transform="translate(242.21386711114815 -52.95142261260993) rotate(536.4206422347161)"><path class="b-outline" fill="#A5ABB6" stroke="none" d="M 25 0.5 L 89.66422177200135 0.5 L 89.66422177200135 -0.5 L 25 -0.5 Z M 136.57047177200135 0.5 L 201.2346935440027 0.5 L 201.2346935440027 3.5 L 208.2346935440027 0 L 201.2346935440027 -3.5 L 201.2346935440027 -0.5 L 136.57047177200135 -0.5 Z"/><text text-anchor="middle" pointer-events="none" font-size="8px" fill="#000000" x="113.11734677200135" y="3" transform="rotate(180 113.11734677200135 0)" font-family="Helvetica Neue, Helvetica, Arial, sans-serif">FactoredBy</text></g><g class="relationship" transform="translate(12.591682981839167 -197.47272339216343) rotate(451.137081941412)"><path class="b-outline" fill="#A5ABB6" stroke="none" d="M 25 0.5 L 52.60372378657121 0.5 L 52.60372378657121 -0.5 L 25 -0.5 Z M 99.50997378657121 0.5 L 127.11369757314242 0.5 L 127.11369757314242 3.5 L 134.11369757314242 0 L 127.11369757314242 -3.5 L 127.11369757314242 -0.5 L 99.50997378657121 -0.5 Z"/><text text-anchor="middle" pointer-events="none" font-size="8px" fill="#000000" x="76.05684878657121" y="3" transform="rotate(180 76.05684878657121 0)" font-family="Helvetica Neue, Helvetica, Arial, sans-serif">FactoredBy</text></g><g class="relationship" transform="translate(-122.432268801024 20.36678661473816) rotate(335.9831643946709)"><path class="b-outline" fill="#A5ABB6" stroke="none" d="M 25 0.5 L 45.229203135289055 0.5 L 45.229203135289055 -0.5 L 25 -0.5 Z M 92.13545313528905 0.5 L 112.36465627057811 0.5 L 112.36465627057811 3.5 L 119.36465627057811 0 L 112.36465627057811 -3.5 L 112.36465627057811 -0.5 L 92.13545313528905 -0.5 Z"/><text text-anchor="middle" pointer-events="none" font-size="8px" fill="#000000" x="68.68232813528905" y="3" font-family="Helvetica Neue, Helvetica, Arial, sans-serif">FactoredBy</text></g><g class="relationship" transform="translate(-127.9794619763916 -79.34011772198468) rotate(376.5942492805259)"><path class="b-outline" fill="#A5ABB6" stroke="none" d="M 25 0.5 L 44.739592422798864 0.5 L 44.739592422798864 -0.5 L 25 -0.5 Z M 91.64584242279886 0.5 L 111.38543484559773 0.5 L 111.38543484559773 3.5 L 118.38543484559773 0 L 111.38543484559773 -3.5 L 111.38543484559773 -0.5 L 91.64584242279886 -0.5 Z"/><text text-anchor="middle" pointer-events="none" font-size="8px" fill="#000000" x="68.19271742279886" y="3" font-family="Helvetica Neue, Helvetica, Arial, sans-serif">FactoredBy</text></g></g><g class="layer nodes"><g class="node" aria-label="graph-node442" transform="translate(9.43414786369641,-38.39035879012742)"><circle class="b-outline" cx="0" cy="0" r="25" fill="#F16667" stroke="#eb2728" stroke-width="2px"/><text class="caption" text-anchor="middle" pointer-events="none" x="0" y="5" font-size="10px" fill="#FFFFFF" font-family="Helvetica Neue, Helvetica, Arial, sans-serif"> 7</text></g><g class="node" aria-label="graph-node42" transform="translate(-573.4744153700464,12.172051960629425)"><circle class="b-outline" cx="0" cy="0" r="25" fill="#F79767" stroke="#f36924" stroke-width="2px"/><text class="caption" text-anchor="middle" pointer-events="none" x="0" y="5" font-size="10px" fill="#FFFFFF" font-family="Helvetica Neue, Helvetica, Arial, sans-serif"> 17</text></g><g class="node" aria-label="graph-node43" transform="translate(-837.7200697412145,-14.060988313516589)"><circle class="b-outline" cx="0" cy="0" r="25" fill="#57C7E3" stroke="#23b3d7" stroke-width="2px"/><text class="caption" text-anchor="middle" pointer-events="none" x="0" y="5" font-size="10px" fill="#2A2C34" font-family="Helvetica Neue, Helvetica, Arial, sans-serif"> 119</text></g><g class="node" aria-label="graph-node44" transform="translate(-420.1478238949693,109.1026074394513)"><circle class="b-outline" cx="0" cy="0" r="25" fill="#F79767" stroke="#f36924" stroke-width="2px"/><text class="caption" text-anchor="middle" pointer-events="none" x="0" y="5" font-size="10px" fill="#FFFFFF" font-family="Helvetica Neue, Helvetica, Arial, sans-serif"> 221</text></g><g class="node" aria-label="graph-node45" transform="translate(-465.1442515512519,21.11823749483006)"><circle class="b-outline" cx="0" cy="0" r="25" fill="#F79767" stroke="#f36924" stroke-width="2px"/><text class="caption" text-anchor="middle" pointer-events="none" x="0" y="5" font-size="10px" fill="#FFFFFF" font-family="Helvetica Neue, Helvetica, Arial, sans-serif"> 323</text></g><g class="node" aria-label="graph-node46" transform="translate(-413.18046116101283,-63.13222164582613)"><circle class="b-outline" cx="0" cy="0" r="25" fill="#F79767" stroke="#f36924" stroke-width="2px"/><text class="caption" text-anchor="middle" pointer-events="none" x="0" y="5" font-size="10px" fill="#FFFFFF" font-family="Helvetica Neue, Helvetica, Arial, sans-serif"> 527</text></g><g class="node" aria-label="graph-node47" transform="translate(-511.00846624551247,-72.30917168807835)"><circle class="b-outline" cx="0" cy="0" r="25" fill="#F79767" stroke="#f36924" stroke-width="2px"/><text class="caption" text-anchor="middle" pointer-events="none" x="0" y="5" font-size="10px" fill="#FFFFFF" font-family="Helvetica Neue, Helvetica, Arial, sans-serif"> 629</text></g><g class="node" aria-label="graph-node48" transform="translate(-368.9987059816773,24.437444581181754)"><circle class="b-outline" cx="0" cy="0" r="25" fill="#F79767" stroke="#f36924" stroke-width="2px"/><text class="caption" text-anchor="middle" pointer-events="none" x="0" y="5" font-size="10px" fill="#FFFFFF" font-family="Helvetica Neue, Helvetica, Arial, sans-serif"> 731</text></g><g class="node" aria-label="graph-node49" transform="translate(-709.0870651572319,-48.16919056318027)"><circle class="b-outline" cx="0" cy="0" r="25" fill="#57C7E3" stroke="#23b3d7" stroke-width="2px"/><text class="caption" text-anchor="middle" pointer-events="none" x="0" y="5" font-size="10px" fill="#2A2C34" font-family="Helvetica Neue, Helvetica, Arial, sans-serif"> 833</text></g><g class="node" aria-label="graph-node50" transform="translate(-554.8860059990396,-160.95638904851677)"><circle class="b-outline" cx="0" cy="0" r="25" fill="#F79767" stroke="#f36924" stroke-width="2px"/><text class="caption" text-anchor="middle" pointer-events="none" x="0" y="5" font-size="10px" fill="#FFFFFF" font-family="Helvetica Neue, Helvetica, Arial, sans-serif"> 1037</text></g><g class="node" aria-label="graph-node51" transform="translate(-457.03402380700294,-152.13103217024087)"><circle class="b-outline" cx="0" cy="0" r="25" fill="#F79767" stroke="#f36924" stroke-width="2px"/><text class="caption" text-anchor="middle" pointer-events="none" x="0" y="5" font-size="10px" fill="#FFFFFF" font-family="Helvetica Neue, Helvetica, Arial, sans-serif"> 1139</text></g><g class="node" aria-label="graph-node52" transform="translate(-647.38714859905,-125.76525501239863)"><circle class="b-outline" cx="0" cy="0" r="25" fill="#F79767" stroke="#f36924" stroke-width="2px"/><text class="caption" text-anchor="middle" pointer-events="none" x="0" y="5" font-size="10px" fill="#FFFFFF" font-family="Helvetica Neue, Helvetica, Arial, sans-serif"> 1241</text></g><g class="node" aria-label="graph-node53" transform="translate(-662.3345368551825,137.2795233201887)"><circle class="b-outline" cx="0" cy="0" r="25" fill="#F79767" stroke="#f36924" stroke-width="2px"/><text class="caption" text-anchor="middle" pointer-events="none" x="0" y="5" font-size="10px" fill="#FFFFFF" font-family="Helvetica Neue, Helvetica, Arial, sans-serif"> 1343</text></g><g class="node" aria-label="graph-node54" transform="translate(-717.9411594931535,55.005569050880986)"><circle class="b-outline" cx="0" cy="0" r="25" fill="#57C7E3" stroke="#23b3d7" stroke-width="2px"/><text class="caption" text-anchor="middle" pointer-events="none" x="0" y="5" font-size="10px" fill="#2A2C34" font-family="Helvetica Neue, Helvetica, Arial, sans-serif"> 1547</text></g><g class="node" aria-label="graph-node55" transform="translate(-575.8457863622295,185.11718467909282)"><circle class="b-outline" cx="0" cy="0" r="25" fill="#F79767" stroke="#f36924" stroke-width="2px"/><text class="caption" text-anchor="middle" pointer-events="none" x="0" y="5" font-size="10px" fill="#FFFFFF" font-family="Helvetica Neue, Helvetica, Arial, sans-serif"> 1649</text></g><g class="node" aria-label="graph-node56" transform="translate(-518.3542832007439,104.4010695214309)"><circle class="b-outline" cx="0" cy="0" r="25" fill="#F79767" stroke="#f36924" stroke-width="2px"/><text class="caption" text-anchor="middle" pointer-events="none" x="0" y="5" font-size="10px" fill="#FFFFFF" font-family="Helvetica Neue, Helvetica, Arial, sans-serif"> 1751</text></g><g class="node" aria-label="graph-node57" transform="translate(-476.37459589358986,190.7059503479811)"><circle class="b-outline" cx="0" cy="0" r="25" fill="#F79767" stroke="#f36924" stroke-width="2px"/><text class="caption" text-anchor="middle" pointer-events="none" x="0" y="5" font-size="10px" fill="#FFFFFF" font-family="Helvetica Neue, Helvetica, Arial, sans-serif"> 1853</text></g><g class="node" aria-label="graph-node448" transform="translate(183.87825293319048,145.71084823082955)"><circle class="b-outline" cx="0" cy="0" r="25" fill="#DA7194" stroke="#cc3c6c" stroke-width="2px"/><text class="caption" text-anchor="middle" pointer-events="none" x="0" y="5" font-size="10px" fill="#FFFFFF" font-family="Helvetica Neue, Helvetica, Arial, sans-serif"> 49</text></g><g class="node" aria-label="graph-node453" transform="translate(272.4056154184381,99.22261611910741)"><circle class="b-outline" cx="0" cy="0" r="25" fill="#569480" stroke="#447666" stroke-width="2px"/><text class="caption" text-anchor="middle" pointer-events="none" x="0" y="5" font-size="10px" fill="#FFFFFF" font-family="Helvetica Neue, Helvetica, Arial, sans-serif"> 91</text></g><g class="node" aria-label="graph-node457" transform="translate(-64.00967843950866,100.28130209276695)"><circle class="b-outline" cx="0" cy="0" r="25" fill="#8DCC93" stroke="#5db665" stroke-width="2px"/><text class="caption" text-anchor="middle" pointer-events="none" x="0" y="5" font-size="10px" fill="#2A2C34" font-family="Helvetica Neue, Helvetica, Arial, sans-serif"> 133</text></g><g class="node" aria-label="graph-node458" transform="translate(28.530491635946323,134.13085658016038)"><circle class="b-outline" cx="0" cy="0" r="25" fill="#ECB5C9" stroke="#da7298" stroke-width="2px"/><text class="caption" text-anchor="middle" pointer-events="none" x="0" y="5" font-size="10px" fill="#2A2C34" font-family="Helvetica Neue, Helvetica, Arial, sans-serif"> 217</text></g><g class="node" aria-label="graph-node459" transform="translate(106.69343999871917,74.13117034392052)"><circle class="b-outline" cx="0" cy="0" r="25" fill="#4C8EDA" stroke="#2870c2" stroke-width="2px"/><text class="caption" text-anchor="middle" pointer-events="none" x="0" y="5" font-size="10px" fill="#FFFFFF" font-family="Helvetica Neue, Helvetica, Arial, sans-serif"> 259</text></g><g class="node" aria-label="graph-node460" transform="translate(142.95030432275723,-46.95446859646544)"><circle class="b-outline" cx="0" cy="0" r="25" fill="#FFC454" stroke="#d7a013" stroke-width="2px"/><text class="caption" text-anchor="middle" pointer-events="none" x="0" y="5" font-size="10px" fill="#2A2C34" font-family="Helvetica Neue, Helvetica, Arial, sans-serif"> 301</text></g><g class="node" aria-label="graph-node461" transform="translate(197.6755885462988,34.81890447955198)"><circle class="b-outline" cx="0" cy="0" r="25" fill="#DA7194" stroke="#cc3c6c" stroke-width="2px"/><text class="caption" text-anchor="middle" pointer-events="none" x="0" y="5" font-size="10px" fill="#FFFFFF" font-family="Helvetica Neue, Helvetica, Arial, sans-serif"> 343</text></g><g class="node" aria-label="graph-node462" transform="translate(77.75093675665211,-122.29358501690058)"><circle class="b-outline" cx="0" cy="0" r="25" fill="#F16667" stroke="#eb2728" stroke-width="2px"/><text class="caption" text-anchor="middle" pointer-events="none" x="0" y="5" font-size="10px" fill="#FFFFFF" font-family="Helvetica Neue, Helvetica, Arial, sans-serif"> 427</text></g><g class="node" aria-label="graph-node463" transform="translate(173.78713017752992,-139.8677637626608)"><circle class="b-outline" cx="0" cy="0" r="25" fill="#F16667" stroke="#eb2728" stroke-width="2px"/><text class="caption" text-anchor="middle" pointer-events="none" x="0" y="5" font-size="10px" fill="#FFFFFF" font-family="Helvetica Neue, Helvetica, Arial, sans-serif"> 469</text></g><g class="node" aria-label="graph-node464" transform="translate(109.08999378436738,-214.09023448748727)"><circle class="b-outline" cx="0" cy="0" r="25" fill="#F16667" stroke="#eb2728" stroke-width="2px"/><text class="caption" text-anchor="middle" pointer-events="none" x="0" y="5" font-size="10px" fill="#FFFFFF" font-family="Helvetica Neue, Helvetica, Arial, sans-serif"> 511</text></g><g class="node" aria-label="graph-node465" transform="translate(-81.900023778355,-167.0437708683973)"><circle class="b-outline" cx="0" cy="0" r="25" fill="#F16667" stroke="#eb2728" stroke-width="2px"/><text class="caption" text-anchor="middle" pointer-events="none" x="0" y="5" font-size="10px" fill="#FFFFFF" font-family="Helvetica Neue, Helvetica, Arial, sans-serif"> 553</text></g><g class="node" aria-label="graph-node466" transform="translate(242.21386711114815,-52.95142261260993)"><circle class="b-outline" cx="0" cy="0" r="25" fill="#569480" stroke="#447666" stroke-width="2px"/><text class="caption" text-anchor="middle" pointer-events="none" x="0" y="5" font-size="10px" fill="#FFFFFF" font-family="Helvetica Neue, Helvetica, Arial, sans-serif"> 637</text></g><g class="node" aria-label="graph-node467" transform="translate(12.591682981839167,-197.47272339216343)"><circle class="b-outline" cx="0" cy="0" r="25" fill="#F16667" stroke="#eb2728" stroke-width="2px"/><text class="caption" text-anchor="middle" pointer-events="none" x="0" y="5" font-size="10px" fill="#FFFFFF" font-family="Helvetica Neue, Helvetica, Arial, sans-serif"> 679</text></g><g class="node" aria-label="graph-node468" transform="translate(-122.432268801024,20.36678661473816)"><circle class="b-outline" cx="0" cy="0" r="25" fill="#F16667" stroke="#eb2728" stroke-width="2px"/><text class="caption" text-anchor="middle" pointer-events="none" x="0" y="5" font-size="10px" fill="#FFFFFF" font-family="Helvetica Neue, Helvetica, Arial, sans-serif"> 721</text></g><g class="node" aria-label="graph-node469" transform="translate(-127.9794619763916,-79.34011772198468)"><circle class="b-outline" cx="0" cy="0" r="25" fill="#F16667" stroke="#eb2728" stroke-width="2px"/><text class="caption" text-anchor="middle" pointer-events="none" x="0" y="5" font-size="10px" fill="#FFFFFF" font-family="Helvetica Neue, Helvetica, Arial, sans-serif"> 763</text></g></g></svg>