<svg xmlns="http://www.w3.org/2000/svg" width="339.08148193359375" height="308.5909423828125" viewBox="-174.05567932128906 -111.97575378417969 339.08148193359375 308.5909423828125"><title>Neo4j Graph Visualization</title><desc>Created using Neo4j (http://www.neo4j.com/)</desc><g class="layer relationships"><g class="relationship" transform="translate(20.800129234801776 97.74717451545867) rotate(379.44529292556854)"><path class="b-outline" fill="#A5ABB6" stroke="none" d="M 6.953439040707552 24.018736134675446 L 17.306200844808384 62.65576918623819 A 17.916697508022974 17.916697508022974 0 1 1 -17.306200844808384 62.65576918623819 L -8.765172356425198 30.780216918698923 L -4.901469051268926 31.815493099109005 L -6.4704761275630185 24.148145657226706 L -11.662949835292403 30.00375978339136 L -7.79924653013613 31.039035963801442 L -16.340275018519314 62.91458823134071 A 16.916697508022974 16.916697508022974 0 1 0 16.340275018519314 62.91458823134071 L 5.987513214418485 24.277555179777966 Z"/><text text-anchor="middle" pointer-events="none" font-size="8px" fill="#000000" x="0" y="94.20964923467838" font-family="Helvetica Neue, Helvetica, Arial, sans-serif">FactoredBy</text></g><g class="relationship" transform="translate(69.95902346614493 -41.495642113887016) rotate(469.4452929255686)"><path class="b-outline" fill="#A5ABB6" stroke="none" d="M 25 0.5 L 46.87972484497409 0.5 L 46.87972484497409 -0.5 L 25 -0.5 Z M 93.78597484497409 0.5 L 115.66569968994818 0.5 L 115.66569968994818 3.5 L 122.66569968994818 0 L 115.66569968994818 -3.5 L 115.66569968994818 -0.5 L 93.78597484497409 -0.5 Z"/><text text-anchor="middle" pointer-events="none" font-size="8px" fill="#000000" x="70.33284984497409" y="3" transform="rotate(180 70.33284984497409 0)" font-family="Helvetica Neue, Helvetica, Arial, sans-serif">FactoredBy</text></g><g class="relationship" transform="translate(69.95902346614493 -41.495642113887016) rotate(239.37830481533268)"><path class="b-outline" fill="#A5ABB6" stroke="none" d="M 6.953439040707552 24.018736134675446 L 17.306200844808384 62.65576918623819 A 17.916697508022974 17.916697508022974 0 1 1 -17.306200844808384 62.65576918623819 L -8.765172356425198 30.780216918698923 L -4.901469051268926 31.815493099109005 L -6.4704761275630185 24.148145657226706 L -11.662949835292403 30.00375978339136 L -7.79924653013613 31.039035963801442 L -16.340275018519314 62.91458823134071 A 16.916697508022974 16.916697508022974 0 1 0 16.340275018519314 62.91458823134071 L 5.987513214418485 24.277555179777966 Z"/><text text-anchor="middle" pointer-events="none" font-size="8px" fill="#000000" x="0" y="94.20964923467838" transform="rotate(180 0 91.20964923467838)" font-family="Helvetica Neue, Helvetica, Arial, sans-serif">FactoredBy</text></g><g class="relationship" transform="translate(69.95902346614493 -41.495642113887016) rotate(189.31131670509683)"><path class="b-outline" fill="#A5ABB6" stroke="none" d="M 25 0.5 L 46.88573756622307 0.5 L 46.88573756622307 -0.5 L 25 -0.5 Z M 93.79198756622307 0.5 L 115.67772513244614 0.5 L 115.67772513244614 3.5 L 122.67772513244614 0 L 115.67772513244614 -3.5 L 115.67772513244614 -0.5 L 93.79198756622307 -0.5 Z"/><text text-anchor="middle" pointer-events="none" font-size="8px" fill="#000000" x="70.33886256622307" y="3" transform="rotate(180 70.33886256622307 0)" font-family="Helvetica Neue, Helvetica, Arial, sans-serif">FactoredBy</text></g><g class="relationship" transform="translate(-75.77286720186325 -65.38971130735051) rotate(459.31131670509683)"><path class="b-outline" fill="#A5ABB6" stroke="none" d="M 6.953439040707552 24.018736134675446 L 17.306200844808384 62.65576918623819 A 17.916697508022974 17.916697508022974 0 1 1 -17.306200844808384 62.65576918623819 L -8.765172356425198 30.780216918698923 L -4.901469051268926 31.815493099109005 L -6.4704761275630185 24.148145657226706 L -11.662949835292403 30.00375978339136 L -7.79924653013613 31.039035963801442 L -16.340275018519314 62.91458823134071 A 16.916697508022974 16.916697508022974 0 1 0 16.340275018519314 62.91458823134071 L 5.987513214418485 24.277555179777966 Z"/><text text-anchor="middle" pointer-events="none" font-size="8px" fill="#000000" x="0" y="94.20964923467838" transform="rotate(180 0 91.20964923467838)" font-family="Helvetica Neue, Helvetica, Arial, sans-serif">FactoredBy</text></g></g><g class="layer nodes"><g class="node" aria-label="graph-node289" transform="translate(20.800129234801776,97.74717451545867)"><circle class="b-outline" cx="0" cy="0" r="25" fill="#569480" stroke="#447666" stroke-width="2px"/><text class="caption" text-anchor="middle" pointer-events="none" x="0" y="5" font-size="10px" fill="#FFFFFF" font-family="Helvetica Neue, Helvetica, Arial, sans-serif"> 7</text></g><g class="node" aria-label="graph-node316" transform="translate(69.95902346614493,-41.495642113887016)"><circle class="b-outline" cx="0" cy="0" r="25" fill="#569480" stroke="#447666" stroke-width="2px"/><text class="caption" text-anchor="middle" pointer-events="none" x="0" y="5" font-size="10px" fill="#FFFFFF" font-family="Helvetica Neue, Helvetica, Arial, sans-serif"> 77</text></g><g class="node" aria-label="graph-node315" transform="translate(-75.77286720186325,-65.38971130735051)"><circle class="b-outline" cx="0" cy="0" r="25" fill="#D9C8AE" stroke="#c0a378" stroke-width="2px"/><text class="caption" text-anchor="middle" pointer-events="none" x="0" y="5" font-size="10px" fill="#2A2C34" font-family="Helvetica Neue, Helvetica, Arial, sans-serif"> 11</text></g></g></svg>